<svg id="svg" version="1.1" xmlns="http://www.w3.org/2000/svg" xmlns:xlink="http://www.w3.org/1999/xlink" width="400" height="289.43488943488944" viewBox="0, 0, 400,289.43488943488944"><g id="svgg"><path id="path0" d="M109.407 7.504 C 109.407 7.652,109.179 7.832,108.900 7.905 C 108.473 8.016,108.467 8.042,108.865 8.071 C 109.124 8.089,109.498 7.909,109.696 7.670 C 109.945 7.370,109.956 7.236,109.732 7.236 C 109.553 7.236,109.407 7.357,109.407 7.504 M113.392 7.446 C 113.912 7.510,114.693 7.509,115.128 7.443 C 115.563 7.377,115.137 7.324,114.182 7.326 C 113.227 7.327,112.871 7.381,113.392 7.446 M283.140 7.443 C 283.578 7.510,284.295 7.510,284.732 7.443 C 285.170 7.377,284.812 7.323,283.936 7.323 C 283.061 7.323,282.703 7.377,283.140 7.443 M273.517 9.262 C 273.517 9.421,273.381 9.551,273.215 9.551 C 273.049 9.551,272.634 9.812,272.292 10.130 C 271.950 10.449,271.427 10.709,271.129 10.709 C 270.827 10.709,270.671 10.843,270.775 11.011 C 270.894 11.203,271.295 11.090,271.877 10.701 C 272.381 10.364,273.021 10.017,273.300 9.931 C 273.741 9.794,274.051 8.973,273.661 8.973 C 273.582 8.973,273.517 9.103,273.517 9.262 M97.896 13.025 C 97.489 13.677,97.612 13.740,98.435 13.300 C 98.748 13.132,98.927 12.872,98.833 12.721 C 98.573 12.299,98.293 12.390,97.896 13.025 M109.997 13.921 C 101.875 16.016,97.196 21.582,95.530 31.132 C 95.140 33.371,95.130 245.104,95.520 256.874 C 95.848 266.787,96.315 268.694,99.460 272.988 C 108.098 284.781,127.157 281.854,131.666 268.042 L 132.272 266.185 132.269 147.058 C 132.266 47.270,132.201 27.689,131.870 26.445 C 129.475 17.451,119.174 11.553,109.997 13.921 M280.174 13.749 C 272.268 15.532,266.562 21.657,265.945 29.021 C 265.807 30.665,265.729 84.819,265.770 149.363 L 265.847 266.715 266.489 268.400 C 270.932 280.046,285.297 284.171,295.040 276.600 C 299.415 273.200,301.437 269.483,302.464 262.952 C 302.908 260.129,302.697 31.588,302.247 29.088 C 300.392 18.761,289.992 11.533,280.174 13.749 M93.672 18.379 C 93.571 18.644,93.672 18.813,93.931 18.813 C 94.165 18.813,94.356 18.618,94.356 18.379 C 94.356 18.140,94.240 17.945,94.098 17.945 C 93.955 17.945,93.764 18.140,93.672 18.379 M134.772 20.696 C 134.671 20.959,134.773 21.129,135.031 21.129 C 135.499 21.129,135.605 20.677,135.197 20.424 C 135.054 20.336,134.863 20.458,134.772 20.696 M136.131 28.986 C 136.136 30.582,136.202 30.844,136.520 30.526 C 136.958 30.088,137.039 28.944,136.632 28.944 C 136.483 28.944,136.308 28.520,136.243 28.003 C 136.178 27.486,136.128 27.928,136.131 28.986 M261.433 29.377 C 260.947 29.928,260.976 30.294,261.505 30.294 C 261.767 30.294,261.939 30.026,261.939 29.619 C 261.939 28.838,261.917 28.827,261.433 29.377 M262.081 79.016 C 262.081 105.362,262.115 116.140,262.156 102.967 C 262.198 89.794,262.198 68.238,262.156 55.065 C 262.115 41.892,262.081 52.670,262.081 79.016 M74.168 33.492 C 74.606 33.559,75.322 33.559,75.760 33.492 C 76.198 33.426,75.839 33.372,74.964 33.372 C 74.088 33.372,73.730 33.426,74.168 33.492 M318.958 33.605 C 318.958 33.791,318.745 33.845,318.452 33.733 C 318.086 33.594,318.032 33.628,318.258 33.856 C 318.431 34.030,318.789 34.089,319.054 33.987 C 319.579 33.786,319.716 33.285,319.247 33.285 C 319.088 33.285,318.958 33.429,318.958 33.605 M322.504 33.492 C 322.941 33.559,323.658 33.559,324.096 33.492 C 324.533 33.426,324.175 33.372,323.300 33.372 C 322.424 33.372,322.066 33.426,322.504 33.492 M65.251 35.573 C 65.340 35.718,65.673 35.768,65.992 35.684 C 66.788 35.476,66.716 35.311,65.830 35.311 C 65.422 35.311,65.162 35.429,65.251 35.573 M335.192 37.321 C 334.884 37.512,334.933 37.636,335.417 37.895 C 336.047 38.232,336.201 38.046,335.806 37.425 C 335.672 37.215,335.430 37.174,335.192 37.321 M62.301 37.541 C 61.943 37.610,61.650 37.788,61.650 37.936 C 61.650 38.326,62.036 38.267,62.680 37.781 C 62.989 37.547,63.177 37.369,63.097 37.386 C 63.017 37.402,62.659 37.472,62.301 37.541 M71.056 38.425 C 65.870 40.235,63.229 43.009,61.481 48.480 C 60.939 50.178,60.926 52.409,60.926 147.033 L 60.926 243.849 61.728 246.115 C 66.481 259.553,84.571 259.448,88.972 245.957 C 89.772 243.506,90.198 150.322,89.739 78.148 L 89.554 49.059 88.779 47.216 C 87.099 43.218,84.950 40.837,81.448 39.090 C 78.944 37.842,73.692 37.505,71.056 38.425 M318.202 38.470 C 313.603 40.126,309.881 44.259,308.877 48.826 C 307.937 53.103,307.937 240.600,308.878 245.007 C 309.749 249.088,314.727 254.993,317.296 254.993 C 317.520 254.993,317.797 255.086,317.911 255.200 C 318.729 256.018,323.574 256.409,325.726 255.830 C 331.378 254.312,334.914 250.870,336.581 245.265 L 337.192 243.208 337.192 146.874 L 337.192 50.539 336.446 48.145 C 333.991 40.265,325.589 35.810,318.202 38.470 M58.799 40.796 C 58.863 40.987,59.009 41.134,59.124 41.122 C 59.471 41.086,59.404 40.689,59.030 40.564 C 58.839 40.501,58.735 40.605,58.799 40.796 M338.640 40.955 C 338.640 41.194,338.770 41.389,338.929 41.389 C 339.088 41.389,339.219 41.194,339.219 40.955 C 339.219 40.716,339.088 40.521,338.929 40.521 C 338.770 40.521,338.640 40.716,338.640 40.955 M90.313 41.259 C 90.302 41.614,90.894 42.258,91.230 42.258 C 91.357 42.258,91.462 42.120,91.462 41.951 C 91.462 41.782,91.339 41.720,91.190 41.812 C 91.041 41.905,90.784 41.750,90.620 41.468 C 90.456 41.186,90.318 41.092,90.313 41.259 M339.312 41.927 C 339.603 42.042,339.821 42.257,339.797 42.406 C 339.773 42.555,339.894 42.724,340.065 42.781 C 340.236 42.838,340.376 42.692,340.376 42.457 C 340.376 42.031,339.763 41.661,339.122 41.699 C 338.937 41.710,339.022 41.813,339.312 41.927 M57.143 53.980 C 57.143 57.641,57.185 59.099,57.235 57.220 C 57.286 55.340,57.285 52.344,57.235 50.563 C 57.184 48.781,57.143 50.318,57.143 53.980 M351.375 55.137 C 351.375 55.376,351.505 55.572,351.664 55.572 C 351.823 55.572,351.954 55.376,351.954 55.137 C 351.954 54.899,351.823 54.703,351.664 54.703 C 351.505 54.703,351.375 54.899,351.375 55.137 M35.444 56.749 C 35.339 56.919,35.070 56.988,34.848 56.903 C 34.611 56.812,34.443 56.929,34.443 57.183 C 34.443 57.524,34.564 57.553,35.006 57.317 C 35.554 57.023,36.069 56.440,35.779 56.440 C 35.700 56.440,35.549 56.579,35.444 56.749 M51.520 57.016 C 51.164 57.248,51.198 57.300,51.706 57.304 C 52.047 57.306,52.401 57.504,52.493 57.742 C 52.584 57.981,52.914 58.177,53.226 58.177 C 53.538 58.177,53.854 58.374,53.929 58.616 C 54.026 58.928,54.052 58.907,54.019 58.547 C 53.994 58.267,53.724 57.990,53.419 57.932 C 53.114 57.873,52.660 57.579,52.409 57.279 C 52.078 56.882,51.835 56.810,51.520 57.016 M345.771 57.164 C 345.957 57.649,346.338 57.731,346.580 57.339 C 346.668 57.196,346.535 57.001,346.284 56.904 C 345.632 56.654,345.585 56.678,345.771 57.164 M54.435 59.262 C 54.446 59.381,54.935 59.863,55.520 60.332 L 56.585 61.185 55.587 60.115 C 54.556 59.009,54.399 58.893,54.435 59.262 M39.903 60.336 C 35.314 61.650,31.504 64.919,30.199 68.663 C 29.391 70.981,29.411 222.685,30.219 225.108 C 33.886 236.095,50.641 236.788,56.006 226.175 L 56.874 224.457 56.950 147.776 C 57.034 61.744,57.226 69.164,54.835 65.813 C 51.641 61.337,44.963 58.888,39.903 60.336 M351.308 60.359 C 347.578 61.379,344.212 63.954,342.243 67.294 L 341.389 68.741 341.389 146.889 L 341.389 225.036 342.193 226.483 C 345.336 232.140,353.435 235.456,358.900 233.324 C 363.129 231.674,365.852 229.410,367.450 226.217 L 368.307 224.503 368.307 146.912 L 368.307 69.320 367.438 67.585 C 364.629 61.972,357.344 58.709,351.308 60.359 M46.889 60.839 C 50.239 61.648,53.826 64.496,55.536 67.704 L 56.440 69.401 56.444 146.929 L 56.449 224.457 55.649 226.041 C 50.465 236.295,34.305 235.574,30.546 224.922 C 29.888 223.056,29.866 70.783,30.524 68.919 C 32.701 62.749,39.958 59.165,46.889 60.839 M358.177 60.800 C 362.362 61.902,366.063 65.031,367.398 68.596 C 367.852 69.808,367.880 75.328,367.807 147.467 L 367.728 225.036 367.004 226.306 C 361.817 235.406,349.133 235.901,343.173 227.235 C 341.609 224.962,341.679 228.731,341.679 146.454 L 341.679 69.320 342.402 67.898 C 345.220 62.362,352.192 59.225,358.177 60.800 M369.391 63.210 C 369.750 63.909,370.085 64.300,370.137 64.079 C 370.188 63.858,370.026 63.472,369.775 63.221 C 369.525 62.971,369.320 62.580,369.320 62.353 C 369.320 62.125,369.189 61.939,369.029 61.939 C 368.869 61.939,369.031 62.511,369.391 63.210 M371.437 67.126 C 371.467 67.512,371.686 67.880,371.925 67.944 C 372.212 68.022,372.248 67.980,372.031 67.822 C 371.850 67.691,371.631 67.323,371.543 67.004 C 371.417 66.548,371.395 66.574,371.437 67.126 M371.984 72.585 C 372.040 75.545,372.047 75.578,372.140 73.300 C 372.194 71.986,372.363 70.912,372.515 70.912 C 372.966 70.912,372.832 69.831,372.359 69.649 C 371.987 69.507,371.933 69.931,371.984 72.585 M26.188 99.276 C 26.188 114.638,26.223 120.923,26.266 113.242 C 26.309 105.561,26.309 92.992,26.266 85.311 C 26.223 77.630,26.188 83.915,26.188 99.276 M11.593 127.556 C 11.216 127.981,11.245 128.009,11.882 127.838 C 12.272 127.734,15.488 127.647,19.030 127.645 C 23.128 127.643,25.470 127.536,25.470 127.352 C 25.470 126.801,12.088 126.998,11.593 127.556 M136.614 127.352 C 136.614 127.534,138.501 127.641,141.696 127.641 C 145.010 127.641,146.716 127.540,146.599 127.352 C 146.491 127.177,144.474 127.062,141.517 127.062 C 138.441 127.062,136.614 127.170,136.614 127.352 M251.520 127.352 C 251.520 127.534,253.407 127.641,256.602 127.641 C 259.916 127.641,261.622 127.540,261.505 127.352 C 261.397 127.177,259.380 127.062,256.423 127.062 C 253.347 127.062,251.520 127.170,251.520 127.352 M372.504 127.352 C 372.504 127.536,374.855 127.641,378.980 127.641 C 382.542 127.641,385.830 127.689,386.288 127.748 C 386.746 127.808,386.957 127.798,386.758 127.727 C 386.559 127.657,386.397 127.478,386.397 127.330 C 386.397 127.173,383.522 127.062,379.450 127.062 C 375.012 127.062,372.504 127.167,372.504 127.352 M8.466 127.833 C 8.071 127.992,7.962 128.799,8.336 128.799 C 8.635 128.799,9.262 128.172,9.262 127.873 C 9.262 127.620,9.024 127.608,8.466 127.833 M389.069 128.220 C 389.488 128.892,389.870 128.976,389.870 128.396 C 389.870 128.174,389.664 127.913,389.412 127.817 C 388.715 127.549,388.677 127.594,389.069 128.220 M378.292 130.535 L 372.359 130.680 372.284 146.955 L 372.209 163.229 372.863 163.390 C 373.223 163.478,376.512 163.513,380.174 163.468 L 386.831 163.386 386.854 161.721 L 386.878 160.055 386.768 161.653 L 386.657 163.252 379.653 163.174 L 372.648 163.097 372.574 146.961 L 372.499 130.825 378.796 130.791 C 382.260 130.772,385.485 130.657,385.962 130.535 C 386.714 130.343,386.656 130.319,385.528 130.352 C 384.812 130.373,381.556 130.456,378.292 130.535 M11.288 147.028 L 11.288 163.531 15.268 163.472 L 19.247 163.413 15.485 163.255 L 11.722 163.097 11.663 146.961 L 11.604 130.825 18.537 130.825 L 25.470 130.825 25.475 147.106 C 25.477 156.060,25.581 163.226,25.705 163.030 C 25.830 162.835,25.925 155.476,25.918 146.677 L 25.904 130.680 18.596 130.603 L 11.288 130.526 11.288 147.028 M136.518 130.728 C 136.249 130.996,136.273 163.242,136.541 163.242 C 136.661 163.242,136.724 155.948,136.681 147.033 L 136.604 130.825 198.982 130.825 L 261.360 130.825 261.378 132.200 C 261.388 132.956,261.397 140.267,261.397 148.448 C 261.397 157.783,261.499 163.219,261.671 163.047 C 261.838 162.880,261.915 156.520,261.869 146.727 L 261.795 130.680 199.253 130.607 C 164.855 130.567,136.624 130.621,136.518 130.728 M386.769 132.127 C 386.771 132.923,386.827 133.215,386.894 132.775 C 386.960 132.335,386.958 131.683,386.890 131.327 C 386.821 130.971,386.767 131.331,386.769 132.127 M386.525 146.889 C 386.525 151.823,386.565 153.883,386.613 151.465 C 386.661 149.048,386.661 145.010,386.613 142.493 C 386.565 139.976,386.525 141.954,386.525 146.889 M8.321 165.170 C 8.520 165.250,8.683 165.566,8.683 165.871 C 8.683 166.176,8.813 166.425,8.973 166.425 C 9.132 166.425,9.262 166.256,9.262 166.049 C 9.262 165.586,8.675 164.970,8.263 165.001 C 8.096 165.014,8.122 165.090,8.321 165.170 M389.074 165.424 C 388.701 165.834,388.585 166.425,388.877 166.425 C 389.273 166.425,389.928 165.500,389.692 165.273 C 389.549 165.136,389.275 165.203,389.074 165.424 M18.958 166.428 C 22.779 166.521,25.937 166.623,25.977 166.656 C 26.017 166.688,26.079 169.678,26.116 173.300 L 26.182 179.884 26.266 173.408 C 26.325 168.867,26.251 166.814,26.019 166.534 C 25.753 166.213,24.359 166.148,18.850 166.198 L 12.012 166.260 18.958 166.428 M136.425 166.359 C 136.241 166.475,145.880 166.618,157.843 166.676 C 169.806 166.735,179.510 166.693,179.405 166.583 C 179.149 166.314,136.846 166.093,136.425 166.359 M219.165 166.499 C 218.892 166.618,228.392 166.683,240.276 166.643 C 252.160 166.603,261.828 166.480,261.760 166.370 C 261.592 166.098,219.791 166.224,219.165 166.499 M372.313 166.358 C 372.129 166.474,374.538 166.535,377.668 166.493 C 386.285 166.375,387.039 166.249,379.450 166.194 C 375.709 166.167,372.497 166.241,372.313 166.358 M262.081 214.906 C 262.081 241.331,262.115 252.185,262.156 239.024 C 262.198 225.864,262.198 204.243,262.156 190.978 C 262.115 177.713,262.081 188.480,262.081 214.906 M372.042 195.784 C 372.027 204.709,372.067 211.520,372.132 210.920 C 372.197 210.320,372.372 209.904,372.521 209.997 C 372.671 210.089,372.793 209.954,372.793 209.696 C 372.793 209.439,372.663 209.308,372.504 209.407 C 372.324 209.518,372.214 208.976,372.214 207.977 C 372.214 207.092,372.344 206.368,372.504 206.368 C 372.663 206.368,372.793 206.230,372.793 206.061 C 372.793 205.892,372.663 205.835,372.504 205.933 C 372.324 206.044,372.214 205.502,372.214 204.503 C 372.214 203.618,372.344 202.894,372.504 202.894 C 372.663 202.894,372.793 202.756,372.793 202.588 C 372.793 202.419,372.663 202.362,372.504 202.460 C 372.325 202.570,372.214 202.077,372.214 201.175 C 372.214 200.369,372.344 199.711,372.504 199.711 C 372.964 199.711,372.893 180.376,372.431 179.917 C 372.142 179.629,372.064 182.803,372.042 195.784 M25.653 180.970 C 25.358 182.070,25.455 198.082,25.760 198.553 C 25.944 198.838,26.042 195.786,26.045 189.653 C 26.049 180.525,26.009 179.640,25.653 180.970 M26.164 215.630 C 26.164 217.938,26.209 218.882,26.264 217.728 C 26.319 216.574,26.319 214.685,26.264 213.531 C 26.209 212.377,26.164 213.321,26.164 215.630 M372.014 220.116 C 372.016 221.071,372.070 221.427,372.135 220.907 C 372.199 220.386,372.198 219.605,372.132 219.170 C 372.066 218.735,372.013 219.161,372.014 220.116 M26.142 221.708 C 26.142 222.742,26.194 223.166,26.259 222.648 C 26.323 222.131,26.323 221.284,26.259 220.767 C 26.194 220.250,26.142 220.673,26.142 221.708 M30.970 233.719 C 31.510 234.276,32.017 234.732,32.096 234.732 C 32.176 234.732,31.799 234.276,31.259 233.719 C 30.719 233.162,30.212 232.706,30.132 232.706 C 30.053 232.706,30.430 233.162,30.970 233.719 M55.267 233.792 L 54.269 234.877 55.367 233.867 C 56.279 233.029,56.511 232.931,56.738 233.288 C 56.968 233.653,57.011 233.642,57.014 233.213 C 57.022 232.399,56.339 232.625,55.267 233.792 M341.148 232.899 C 341.042 233.005,340.980 234.210,341.011 235.576 C 341.060 237.767,341.079 237.847,341.169 236.252 C 341.226 235.257,341.391 234.443,341.536 234.443 C 341.681 234.443,341.773 234.052,341.739 233.575 C 341.679 232.713,341.518 232.529,341.148 232.899 M32.444 235.166 C 32.402 235.834,32.959 236.332,33.331 235.960 C 33.617 235.674,33.595 235.601,33.222 235.601 C 32.965 235.601,32.689 235.438,32.608 235.239 C 32.528 235.040,32.454 235.007,32.444 235.166 M53.835 235.263 C 53.835 235.449,53.632 235.601,53.384 235.601 C 53.130 235.601,53.018 235.740,53.129 235.918 C 53.262 236.134,53.470 236.090,53.780 235.780 C 54.030 235.530,54.145 235.235,54.035 235.125 C 53.925 235.015,53.835 235.077,53.835 235.263 M344.288 235.593 C 344.060 235.962,344.534 236.183,344.973 235.911 C 345.264 235.731,345.247 235.643,344.896 235.509 C 344.649 235.414,344.375 235.452,344.288 235.593 M33.868 236.086 C 33.877 236.530,34.410 237.177,34.606 236.981 C 34.713 236.874,34.590 236.575,34.333 236.317 C 34.075 236.060,33.866 235.956,33.868 236.086 M52.388 236.131 C 52.388 236.317,52.192 236.469,51.954 236.469 C 51.715 236.469,51.520 236.599,51.520 236.758 C 51.520 237.234,52.311 237.085,52.508 236.572 C 52.609 236.311,52.623 236.028,52.539 235.945 C 52.456 235.862,52.388 235.945,52.388 236.131 M346.937 236.951 C 346.573 237.315,346.744 237.591,347.308 237.548 C 347.734 237.516,347.796 237.414,347.562 237.132 C 347.203 236.699,347.192 236.696,346.937 236.951 M46.213 238.398 C 46.107 238.505,46.022 238.733,46.025 238.905 C 46.028 239.117,46.098 239.112,46.242 238.890 C 46.359 238.710,46.715 238.497,47.033 238.417 C 47.593 238.277,47.592 238.272,47.009 238.239 C 46.678 238.221,46.319 238.292,46.213 238.398 M351.085 238.416 C 351.324 238.507,351.615 238.725,351.732 238.900 C 351.863 239.097,351.947 239.024,351.949 238.712 C 351.952 238.372,351.740 238.213,351.302 238.228 C 350.867 238.244,350.795 238.306,351.085 238.416 M357.646 238.398 C 357.369 238.675,357.408 239.074,357.711 239.074 C 357.854 239.074,358.045 238.878,358.137 238.640 C 358.306 238.198,357.997 238.047,357.646 238.398 M57.308 250.476 C 57.308 250.893,58.143 251.360,58.411 251.092 C 58.494 251.009,58.411 250.941,58.225 250.941 C 58.039 250.941,57.887 250.745,57.887 250.507 C 57.887 250.268,57.757 250.072,57.598 250.072 C 57.438 250.072,57.308 250.254,57.308 250.476 M340.365 250.217 C 340.333 250.376,340.323 250.604,340.342 250.724 C 340.361 250.843,340.261 250.941,340.120 250.941 C 339.979 250.941,339.653 251.262,339.396 251.656 C 338.997 252.264,338.992 252.346,339.362 252.203 C 339.602 252.112,339.797 251.902,339.797 251.738 C 339.797 251.573,340.011 251.283,340.271 251.092 C 340.532 250.901,340.673 250.561,340.584 250.337 C 340.495 250.112,340.396 250.058,340.365 250.217 M306.642 252.179 C 306.564 252.382,306.538 255.215,306.585 258.474 L 306.670 264.399 306.736 258.273 C 306.785 253.694,306.893 252.110,307.164 252.001 C 307.447 251.886,307.445 251.850,307.154 251.832 C 306.950 251.819,306.720 251.975,306.642 252.179 M60.781 254.948 C 60.781 255.344,61.738 256.055,62.518 256.239 L 63.242 256.410 62.518 255.846 C 62.120 255.536,61.637 255.152,61.445 254.993 C 61.018 254.639,60.781 254.623,60.781 254.948 M335.475 255.983 C 335.195 256.321,335.240 256.366,335.729 256.239 C 336.056 256.153,336.324 255.968,336.324 255.827 C 336.324 255.437,335.857 255.523,335.475 255.983 M64.668 257.763 C 64.918 258.013,65.123 258.324,65.123 258.453 C 65.123 258.656,65.477 258.813,66.353 258.999 C 66.473 259.024,66.570 258.980,66.570 258.900 C 66.570 258.821,66.473 258.746,66.353 258.735 C 66.234 258.724,66.030 258.525,65.901 258.295 C 65.772 258.064,65.558 257.942,65.425 258.024 C 65.292 258.106,65.109 257.979,65.018 257.741 C 64.926 257.503,64.708 257.308,64.533 257.308 C 64.357 257.308,64.418 257.513,64.668 257.763 M73.734 260.415 C 74.410 260.475,75.517 260.475,76.194 260.415 C 76.870 260.354,76.317 260.304,74.964 260.304 C 73.611 260.304,73.057 260.354,73.734 260.415 M322.077 260.415 C 322.758 260.476,323.800 260.475,324.393 260.413 C 324.985 260.351,324.428 260.301,323.155 260.302 C 321.881 260.303,321.396 260.354,322.077 260.415 M136.035 263.791 C 136.035 264.583,136.133 264.778,136.469 264.649 C 136.708 264.557,136.903 264.291,136.903 264.058 C 136.903 263.825,136.708 263.439,136.469 263.200 C 136.083 262.814,136.035 262.880,136.035 263.791 M305.687 270.029 C 305.812 270.402,306.209 270.469,306.245 270.123 C 306.257 270.008,306.110 269.861,305.919 269.797 C 305.728 269.734,305.624 269.838,305.687 270.029 M92.096 271.512 C 92.153 271.683,92.323 271.823,92.475 271.823 C 92.626 271.823,92.796 271.683,92.853 271.512 C 92.910 271.341,92.740 271.201,92.475 271.201 C 92.209 271.201,92.039 271.341,92.096 271.512 M92.619 273.082 C 92.619 273.348,92.759 273.518,92.931 273.461 C 93.102 273.404,93.242 273.234,93.242 273.082 C 93.242 272.931,93.102 272.761,92.931 272.704 C 92.759 272.647,92.619 272.817,92.619 273.082 M134.788 272.833 C 134.557 273.065,134.819 273.517,135.184 273.517 C 135.333 273.517,135.456 273.321,135.456 273.082 C 135.456 272.635,135.114 272.507,134.788 272.833 M303.329 276.451 C 303.329 276.633,303.101 276.961,302.822 277.180 C 302.381 277.526,302.419 277.534,303.111 277.238 C 303.870 276.913,304.229 276.122,303.618 276.122 C 303.459 276.122,303.329 276.270,303.329 276.451 M265.123 278.003 C 265.123 278.242,265.253 278.437,265.412 278.437 C 265.572 278.437,265.702 278.242,265.702 278.003 C 265.702 277.764,265.572 277.569,265.412 277.569 C 265.253 277.569,265.123 277.764,265.123 278.003 M97.540 280.463 C 97.540 280.622,97.757 280.753,98.024 280.753 C 98.290 280.753,98.719 280.915,98.978 281.114 C 99.237 281.313,99.143 281.183,98.768 280.825 C 98.045 280.134,97.540 279.985,97.540 280.463 M299.624 280.521 C 299.151 280.994,299.187 281.331,299.711 281.331 C 299.949 281.331,300.145 281.277,300.145 281.210 C 300.145 281.144,300.224 280.883,300.320 280.631 C 300.528 280.091,300.118 280.026,299.624 280.521 M127.931 281.910 C 127.592 282.129,127.672 282.192,128.292 282.195 C 128.730 282.198,129.088 282.069,129.088 281.910 C 129.088 281.544,128.497 281.544,127.931 281.910 M296.671 282.892 C 296.671 283.167,296.574 283.335,296.454 283.266 C 296.335 283.197,295.977 283.245,295.658 283.373 C 295.155 283.576,295.185 283.609,295.885 283.627 C 296.650 283.646,297.260 282.981,296.852 282.573 C 296.753 282.474,296.671 282.617,296.671 282.892 M274.674 284.814 C 274.674 284.968,274.924 285.094,275.229 285.094 C 275.534 285.094,275.850 285.228,275.931 285.391 C 276.012 285.554,276.049 285.534,276.013 285.346 C 275.931 284.920,274.674 284.421,274.674 284.814 M112.663 286.465 C 113.419 286.524,114.656 286.524,115.412 286.465 C 116.169 286.405,115.550 286.356,114.038 286.356 C 112.525 286.356,111.907 286.405,112.663 286.465 M282.860 286.465 C 283.621 286.525,284.793 286.524,285.465 286.463 C 286.136 286.403,285.514 286.354,284.081 286.355 C 282.648 286.355,282.099 286.405,282.860 286.465 " stroke="none" fill="#393e3e" fill-rule="evenodd"></path><path id="path1" d="M112.590 6.946 C 112.590 7.106,112.851 7.236,113.169 7.236 C 113.488 7.236,113.748 7.106,113.748 6.946 C 113.748 6.787,113.488 6.657,113.169 6.657 C 112.851 6.657,112.590 6.787,112.590 6.946 M114.327 6.946 C 114.327 7.106,114.653 7.236,115.051 7.236 C 115.449 7.236,115.774 7.106,115.774 6.946 C 115.774 6.787,115.449 6.657,115.051 6.657 C 114.653 6.657,114.327 6.787,114.327 6.946 M282.489 6.946 C 282.489 7.106,282.750 7.236,283.068 7.236 C 283.386 7.236,283.647 7.106,283.647 6.946 C 283.647 6.787,283.386 6.657,283.068 6.657 C 282.750 6.657,282.489 6.787,282.489 6.946 M284.515 6.946 C 284.515 7.106,284.711 7.236,284.949 7.236 C 285.188 7.236,285.384 7.106,285.384 6.946 C 285.384 6.787,285.188 6.657,284.949 6.657 C 284.711 6.657,284.515 6.787,284.515 6.946 M261.650 26.290 C 261.650 26.795,261.520 27.207,261.360 27.207 C 261.201 27.207,261.071 27.598,261.071 28.075 C 261.071 28.553,261.192 28.944,261.340 28.944 C 261.649 28.944,262.100 25.824,261.830 25.554 C 261.731 25.455,261.650 25.786,261.650 26.290 M136.324 26.918 C 136.324 27.395,136.454 27.786,136.614 27.786 C 136.773 27.786,136.903 27.395,136.903 26.918 C 136.903 26.440,136.773 26.049,136.614 26.049 C 136.454 26.049,136.324 26.440,136.324 26.918 M136.324 31.114 C 136.324 31.353,136.454 31.548,136.614 31.548 C 136.773 31.548,136.903 31.353,136.903 31.114 C 136.903 30.876,136.773 30.680,136.614 30.680 C 136.454 30.680,136.324 30.876,136.324 31.114 M261.290 30.893 C 261.579 31.098,261.638 40.910,261.579 79.237 C 261.538 105.684,261.603 127.225,261.723 127.105 C 262.194 126.634,261.834 30.884,261.360 30.755 C 261.037 30.666,261.019 30.702,261.290 30.893 M321.852 32.996 C 321.852 33.155,322.048 33.285,322.287 33.285 C 322.525 33.285,322.721 33.155,322.721 32.996 C 322.721 32.836,322.525 32.706,322.287 32.706 C 322.048 32.706,321.852 32.836,321.852 32.996 M323.589 32.996 C 323.589 33.155,323.849 33.285,324.168 33.285 C 324.486 33.285,324.747 33.155,324.747 32.996 C 324.747 32.836,324.486 32.706,324.168 32.706 C 323.849 32.706,323.589 32.836,323.589 32.996 M312.880 35.842 C 312.880 36.027,312.619 36.179,312.301 36.179 C 311.983 36.179,311.722 36.310,311.722 36.469 C 311.722 36.873,312.093 36.830,312.752 36.348 C 313.061 36.122,313.216 35.840,313.097 35.721 C 312.977 35.602,312.880 35.656,312.880 35.842 M309.986 38.264 C 308.351 40.058,308.312 40.175,309.832 38.722 C 310.618 37.972,311.201 37.311,311.129 37.255 C 311.057 37.198,310.543 37.652,309.986 38.264 M88.345 38.784 C 88.710 39.369,89.146 39.558,89.146 39.132 C 89.146 38.831,88.519 38.205,88.218 38.205 C 88.089 38.205,88.146 38.466,88.345 38.784 M341.092 53.377 C 341.099 59.537,341.163 60.606,341.534 60.707 C 341.850 60.793,341.871 60.757,341.612 60.573 C 341.350 60.387,341.232 58.436,341.169 53.242 L 341.084 46.165 341.092 53.377 M350.507 54.993 C 350.507 55.152,350.702 55.282,350.941 55.282 C 351.179 55.282,351.375 55.152,351.375 54.993 C 351.375 54.834,351.179 54.703,350.941 54.703 C 350.702 54.703,350.507 54.834,350.507 54.993 M365.865 58.923 C 366.248 59.383,366.715 59.469,366.715 59.079 C 366.715 58.938,366.447 58.753,366.119 58.667 C 365.631 58.539,365.585 58.585,365.865 58.923 M31.056 59.128 C 30.864 59.321,30.506 59.647,30.260 59.852 C 30.013 60.057,29.812 60.439,29.812 60.700 C 29.812 61.043,30.033 60.932,30.608 60.300 C 31.046 59.819,31.664 59.278,31.983 59.099 L 32.562 58.773 31.983 58.775 C 31.664 58.776,31.247 58.935,31.056 59.128 M54.149 58.861 C 54.743 59.381,55.543 59.597,55.389 59.196 C 55.296 58.954,54.952 58.755,54.624 58.755 C 54.296 58.755,54.082 58.803,54.149 58.861 M342.121 59.612 C 341.887 59.761,341.793 59.979,341.911 60.097 C 342.030 60.216,342.347 60.093,342.616 59.824 C 343.139 59.300,342.826 59.167,342.121 59.612 M370.193 63.893 C 370.206 64.527,370.758 64.948,370.763 64.327 C 370.765 63.969,370.637 63.676,370.478 63.676 C 370.318 63.676,370.190 63.774,370.193 63.893 M25.329 73.155 C 25.436 74.389,25.544 87.022,25.569 101.230 C 25.594 115.438,25.713 127.062,25.832 127.062 C 26.088 127.062,26.122 72.517,25.867 71.563 C 25.464 70.059,25.143 71.007,25.329 73.155 M372.214 100.851 C 372.214 118.132,372.313 127.062,372.504 127.062 C 372.694 127.062,372.793 118.192,372.793 101.030 C 372.793 83.988,372.693 74.936,372.504 74.819 C 372.311 74.700,372.214 83.451,372.214 100.851 M11.867 146.889 L 11.867 162.952 18.669 162.952 L 25.470 162.952 25.470 146.889 L 25.470 130.825 18.669 130.825 L 11.867 130.825 11.867 146.889 M136.903 146.889 L 136.903 162.952 199.132 162.952 L 261.360 162.952 261.360 146.889 L 261.360 130.825 199.132 130.825 L 136.903 130.825 136.903 146.889 M372.793 146.878 L 372.793 162.931 379.522 163.014 C 383.224 163.060,386.344 163.030,386.458 162.949 C 386.571 162.868,386.523 160.719,386.352 158.173 C 386.047 153.632,386.214 134.225,386.578 131.910 L 386.749 130.825 379.771 130.825 L 372.793 130.825 372.793 146.878 M389.653 144.573 C 389.657 145.210,389.716 145.436,389.785 145.076 C 389.854 144.716,389.852 144.195,389.779 143.918 C 389.707 143.642,389.650 143.936,389.653 144.573 M8.187 146.889 C 8.189 147.685,8.245 147.976,8.312 147.536 C 8.378 147.096,8.377 146.445,8.308 146.089 C 8.239 145.733,8.185 146.093,8.187 146.889 M389.647 149.349 C 389.647 149.906,389.707 150.134,389.780 149.855 C 389.853 149.577,389.853 149.121,389.780 148.842 C 389.707 148.564,389.647 148.792,389.647 149.349 M389.647 153.690 C 389.647 154.247,389.707 154.475,389.780 154.197 C 389.853 153.918,389.853 153.462,389.780 153.184 C 389.707 152.905,389.647 153.133,389.647 153.690 M25.699 172.967 C 25.755 177.161,25.678 179.344,25.467 179.598 C 25.276 179.829,25.260 180.044,25.426 180.146 C 25.576 180.239,25.778 180.110,25.874 179.859 C 26.129 179.195,26.089 166.715,25.832 166.715 C 25.713 166.714,25.653 169.528,25.699 172.967 M261.721 214.665 C 261.665 252.827,261.575 262.786,261.288 262.888 C 261.089 262.960,261.026 263.125,261.148 263.255 C 261.891 264.050,261.938 260.897,261.867 214.746 L 261.793 166.570 261.721 214.665 M372.214 173.227 C 372.214 177.376,372.319 179.740,372.504 179.740 C 372.688 179.740,372.793 177.376,372.793 173.227 C 372.793 169.079,372.688 166.715,372.504 166.715 C 372.319 166.715,372.214 169.079,372.214 173.227 M25.322 211.075 C 25.209 211.355,25.269 211.769,25.456 211.995 C 25.695 212.282,25.749 213.387,25.639 215.681 C 25.401 220.631,25.400 220.911,25.621 221.927 C 25.755 222.543,25.698 223.026,25.456 223.317 C 25.153 223.682,25.165 223.842,25.525 224.201 C 25.917 224.593,25.969 223.965,26.016 218.304 C 26.065 212.301,25.828 209.823,25.322 211.075 M372.214 215.502 C 372.214 218.044,372.316 219.363,372.504 219.247 C 372.672 219.143,372.793 217.508,372.793 215.323 C 372.793 213.019,372.682 211.577,372.504 211.577 C 372.325 211.577,372.214 213.079,372.214 215.502 M372.214 221.980 C 372.214 222.626,372.344 223.155,372.504 223.155 C 372.663 223.155,372.793 222.707,372.793 222.159 C 372.793 221.611,372.663 221.082,372.504 220.984 C 372.329 220.876,372.214 221.271,372.214 221.980 M28.003 230.582 C 28.202 230.663,28.365 230.986,28.365 231.300 C 28.365 231.615,28.495 231.791,28.655 231.693 C 29.034 231.458,28.477 230.382,27.993 230.414 C 27.728 230.431,27.730 230.472,28.003 230.582 M55.374 234.016 C 54.518 234.869,54.501 234.925,55.123 234.806 C 55.492 234.735,55.943 234.348,56.127 233.944 C 56.587 232.935,56.445 232.948,55.374 234.016 M341.648 233.453 C 341.744 233.705,341.823 233.966,341.823 234.032 C 341.823 234.099,342.027 234.153,342.275 234.153 C 342.542 234.153,342.642 234.290,342.519 234.488 C 342.387 234.702,342.441 234.743,342.669 234.602 C 342.931 234.440,342.852 234.198,342.374 233.689 C 341.616 232.882,341.402 232.813,341.648 233.453 M367.443 233.560 C 367.345 233.870,367.010 234.204,366.700 234.303 C 366.125 234.485,365.911 235.022,366.412 235.022 C 366.771 235.022,368.162 233.631,368.162 233.272 C 368.162 232.770,367.626 232.985,367.443 233.560 M30.101 233.740 C 30.101 234.069,30.839 234.631,31.494 234.802 C 32.152 234.974,32.150 234.964,31.407 234.276 C 30.693 233.614,30.101 233.371,30.101 233.740 M56.151 235.977 C 56.151 237.043,56.277 237.916,56.432 237.916 C 56.593 237.916,56.759 239.487,56.821 241.606 C 56.881 243.636,56.902 242.911,56.868 239.995 C 56.828 236.510,56.694 234.581,56.478 234.366 C 56.234 234.121,56.151 234.532,56.151 235.977 M341.245 241.389 C 341.245 243.898,341.355 245.441,341.534 245.441 C 341.713 245.441,341.823 243.898,341.823 241.389 C 341.823 238.881,341.713 237.337,341.534 237.337 C 341.355 237.337,341.245 238.881,341.245 241.389 M90.794 252.283 C 90.485 252.592,90.556 253.024,90.883 252.822 C 91.042 252.724,91.182 252.879,91.195 253.167 C 91.208 253.455,91.282 253.532,91.360 253.339 C 91.539 252.898,91.065 252.012,90.794 252.283 M307.019 252.267 C 306.899 252.386,306.802 255.159,306.802 258.427 C 306.802 262.472,306.896 264.276,307.097 264.075 C 307.284 263.888,307.364 261.626,307.314 257.914 C 307.271 254.689,307.138 252.147,307.019 252.267 M62.229 256.440 C 62.229 256.599,62.424 256.729,62.663 256.729 C 62.902 256.729,63.097 256.881,63.097 257.067 C 63.097 257.253,63.181 257.321,63.283 257.219 C 63.498 257.003,62.859 256.151,62.483 256.151 C 62.343 256.151,62.229 256.281,62.229 256.440 M73.661 260.781 C 73.760 260.941,74.281 261.071,74.819 261.071 C 75.357 261.071,75.878 260.941,75.977 260.781 C 76.086 260.604,75.636 260.492,74.819 260.492 C 74.002 260.492,73.552 260.604,73.661 260.781 M322.142 260.781 C 322.381 260.936,322.902 261.062,323.300 261.062 C 323.698 261.062,324.219 260.936,324.457 260.781 C 324.766 260.582,324.433 260.501,323.300 260.501 C 322.166 260.501,321.833 260.582,322.142 260.781 M91.259 263.965 C 91.259 264.841,91.313 265.199,91.380 264.761 C 91.446 264.323,91.446 263.607,91.380 263.169 C 91.313 262.732,91.259 263.090,91.259 263.965 M112.880 286.831 C 113.119 286.985,113.640 287.111,114.038 287.111 C 114.436 287.111,114.957 286.985,115.195 286.831 C 115.504 286.631,115.171 286.550,114.038 286.550 C 112.904 286.550,112.571 286.631,112.880 286.831 M282.779 286.831 C 283.017 286.985,283.538 287.111,283.936 287.111 C 284.334 287.111,284.855 286.985,285.094 286.831 C 285.403 286.631,285.070 286.550,283.936 286.550 C 282.803 286.550,282.469 286.631,282.779 286.831 " stroke="none" fill="#7c7c7c" fill-rule="evenodd"></path><path id="path2" d="M283.647 6.946 C 283.647 7.106,283.842 7.236,284.081 7.236 C 284.320 7.236,284.515 7.106,284.515 6.946 C 284.515 6.787,284.320 6.657,284.081 6.657 C 283.842 6.657,283.647 6.787,283.647 6.946 M298.698 12.446 C 299.259 12.808,299.566 12.808,299.566 12.446 C 299.566 12.287,299.273 12.158,298.915 12.161 C 298.388 12.164,298.346 12.219,298.698 12.446 M136.102 26.339 C 136.102 26.896,136.161 27.124,136.234 26.845 C 136.307 26.567,136.307 26.111,136.234 25.832 C 136.161 25.554,136.102 25.781,136.102 26.339 M261.673 28.148 C 261.660 28.585,261.520 28.944,261.360 28.944 C 261.201 28.944,261.071 29.074,261.071 29.233 C 261.071 29.392,261.199 29.522,261.355 29.522 C 261.702 29.522,262.052 28.241,261.846 27.726 C 261.763 27.520,261.685 27.710,261.673 28.148 M136.324 28.365 C 136.324 28.683,136.454 28.944,136.614 28.944 C 136.773 28.944,136.903 28.683,136.903 28.365 C 136.903 28.046,136.773 27.786,136.614 27.786 C 136.454 27.786,136.324 28.046,136.324 28.365 M306.599 30.970 C 306.599 31.845,306.653 32.203,306.720 31.766 C 306.786 31.328,306.786 30.611,306.720 30.174 C 306.653 29.736,306.599 30.094,306.599 30.970 M136.153 35.745 C 136.153 38.452,136.196 39.598,136.250 38.292 C 136.303 36.987,136.304 34.772,136.250 33.372 C 136.197 31.971,136.153 33.039,136.153 35.745 M74.096 32.996 C 74.096 33.155,74.421 33.285,74.819 33.285 C 75.217 33.285,75.543 33.155,75.543 32.996 C 75.543 32.836,75.217 32.706,74.819 32.706 C 74.421 32.706,74.096 32.836,74.096 32.996 M322.721 32.996 C 322.721 33.155,322.916 33.285,323.155 33.285 C 323.394 33.285,323.589 33.155,323.589 32.996 C 323.589 32.836,323.394 32.706,323.155 32.706 C 322.916 32.706,322.721 32.836,322.721 32.996 M306.566 37.248 C 306.536 39.666,306.610 41.705,306.729 41.780 C 306.849 41.854,306.912 40.527,306.870 38.830 C 306.735 33.344,306.621 32.749,306.566 37.248 M136.105 83.847 C 136.066 107.597,136.132 127.088,136.252 127.162 C 136.448 127.284,136.447 97.724,136.249 56.295 C 136.208 47.699,136.143 60.097,136.105 83.847 M55.447 59.935 C 56.062 60.615,56.118 60.622,56.028 60.010 C 55.990 59.744,55.729 59.494,55.450 59.453 C 54.968 59.382,54.968 59.406,55.447 59.935 M366.811 59.754 C 367.102 59.975,367.519 60.394,367.737 60.686 C 368.102 61.173,368.119 61.158,367.956 60.492 C 367.761 59.695,367.377 59.341,366.715 59.348 C 366.374 59.352,366.394 59.439,366.811 59.754 M41.679 60.515 C 36.499 61.161,32.089 64.483,30.524 68.919 C 29.866 70.783,29.888 223.056,30.546 224.922 C 34.305 235.574,50.465 236.295,55.649 226.041 L 56.449 224.457 56.444 146.929 L 56.440 69.401 55.536 67.704 C 52.875 62.711,47.292 59.815,41.679 60.515 M341.823 60.523 C 341.823 60.709,341.610 60.762,341.317 60.651 C 340.909 60.495,340.881 60.529,341.174 60.824 C 341.468 61.120,341.634 61.095,342.032 60.697 C 342.341 60.387,342.395 60.203,342.175 60.203 C 341.982 60.203,341.823 60.347,341.823 60.523 M350.186 61.179 C 346.855 62.355,343.945 64.867,342.402 67.898 L 341.679 69.320 341.679 146.454 C 341.679 228.731,341.609 224.962,343.173 227.235 C 349.133 235.901,361.817 235.406,367.004 226.306 L 367.728 225.036 367.807 147.467 C 367.880 75.328,367.852 69.808,367.398 68.596 C 365.057 62.342,356.877 58.817,350.186 61.179 M28.369 62.880 C 28.373 63.406,28.427 63.448,28.654 63.097 C 29.017 62.536,29.017 62.229,28.654 62.229 C 28.495 62.229,28.367 62.522,28.369 62.880 M25.543 69.656 C 25.127 69.824,25.046 70.912,25.449 70.912 C 25.597 70.912,25.777 71.140,25.850 71.418 C 25.923 71.697,25.976 71.371,25.969 70.695 C 25.961 70.018,25.943 69.475,25.929 69.487 C 25.916 69.500,25.742 69.576,25.543 69.656 M372.214 71.346 C 372.214 71.585,372.344 71.780,372.504 71.780 C 372.663 71.780,372.793 71.585,372.793 71.346 C 372.793 71.107,372.663 70.912,372.504 70.912 C 372.344 70.912,372.214 71.107,372.214 71.346 M372.407 72.262 C 372.104 72.565,372.182 74.620,372.504 74.819 C 372.682 74.929,372.793 74.436,372.793 73.534 C 372.793 72.050,372.753 71.917,372.407 72.262 M371.993 101.213 C 371.955 115.411,372.022 127.088,372.142 127.162 C 372.338 127.284,372.336 108.900,372.137 84.660 C 372.095 79.566,372.030 87.015,371.993 101.213 M11.703 138.061 C 11.703 142.120,11.744 143.781,11.794 141.751 C 11.843 139.721,11.843 136.400,11.794 134.370 C 11.744 132.341,11.703 134.001,11.703 138.061 M136.755 146.961 L 136.758 163.097 199.059 163.098 L 261.360 163.099 199.134 163.025 L 136.908 162.951 136.829 146.888 L 136.751 130.825 136.755 146.961 M372.645 146.961 L 372.648 163.097 379.233 163.105 L 385.818 163.114 379.308 163.028 L 372.798 162.941 372.719 146.883 L 372.641 130.825 372.645 146.961 M386.298 136.252 C 386.069 140.740,386.106 154.483,386.358 158.466 C 386.459 160.058,386.541 154.881,386.541 146.961 C 386.541 139.041,386.529 132.562,386.514 132.562 C 386.498 132.562,386.401 134.222,386.298 136.252 M389.667 147.033 C 389.667 147.909,389.721 148.267,389.788 147.829 C 389.854 147.391,389.854 146.675,389.788 146.237 C 389.721 145.800,389.667 146.158,389.667 147.033 M11.714 155.716 L 11.722 163.097 18.524 163.105 L 25.326 163.113 18.601 163.027 L 11.877 162.942 11.792 155.639 L 11.707 148.336 11.714 155.716 M11.577 166.498 C 11.577 166.617,14.736 166.690,18.596 166.659 C 26.110 166.599,25.423 166.480,16.859 166.357 C 13.954 166.315,11.577 166.378,11.577 166.498 M379.450 166.425 L 372.648 166.586 379.505 166.651 C 383.835 166.691,386.428 166.608,386.541 166.425 C 386.640 166.266,386.615 166.165,386.486 166.200 C 386.357 166.236,383.191 166.337,379.450 166.425 M138.857 166.641 C 140.170 166.694,142.319 166.694,143.632 166.641 C 144.946 166.587,143.871 166.543,141.245 166.543 C 138.618 166.543,137.543 166.587,138.857 166.641 M254.631 166.641 C 255.944 166.694,258.093 166.694,259.407 166.641 C 260.720 166.587,259.645 166.543,257.019 166.543 C 254.392 166.543,253.318 166.587,254.631 166.641 M136.176 214.761 C 136.176 241.266,136.210 252.109,136.252 238.857 C 136.293 225.604,136.293 203.918,136.252 190.666 C 136.210 177.413,136.176 188.256,136.176 214.761 M372.048 173.082 C 372.048 176.664,372.090 178.130,372.141 176.339 C 372.192 174.548,372.192 171.617,372.141 169.826 C 372.090 168.035,372.048 169.501,372.048 173.082 M25.760 179.998 C 25.760 180.193,25.630 180.272,25.470 180.174 C 25.279 180.055,25.181 185.241,25.181 195.514 C 25.181 204.939,25.286 210.968,25.448 210.867 C 25.596 210.776,25.778 210.932,25.855 211.212 C 25.931 211.493,25.940 208.726,25.874 205.065 C 25.808 201.404,25.687 194.638,25.604 190.031 C 25.506 184.611,25.559 181.350,25.752 180.794 C 25.917 180.322,25.986 179.869,25.906 179.789 C 25.825 179.709,25.760 179.803,25.760 179.998 M372.214 201.206 C 372.214 202.028,372.308 202.607,372.423 202.492 C 372.758 202.157,372.832 199.711,372.507 199.711 C 372.346 199.711,372.214 200.384,372.214 201.206 M372.214 204.503 C 372.214 205.388,372.316 206.050,372.440 205.973 C 372.780 205.763,372.839 202.894,372.504 202.894 C 372.344 202.894,372.214 203.618,372.214 204.503 M372.214 207.977 C 372.214 208.861,372.316 209.523,372.440 209.446 C 372.780 209.236,372.839 206.368,372.504 206.368 C 372.344 206.368,372.214 207.092,372.214 207.977 M372.214 210.692 C 372.214 211.179,372.344 211.577,372.504 211.577 C 372.663 211.577,372.793 211.259,372.793 210.871 C 372.793 210.482,372.663 210.084,372.504 209.986 C 372.335 209.881,372.214 210.175,372.214 210.692 M372.035 215.195 C 372.036 217.106,372.083 217.849,372.139 216.848 C 372.196 215.847,372.196 214.284,372.138 213.375 C 372.081 212.466,372.035 213.285,372.035 215.195 M372.407 219.296 C 372.110 219.592,372.178 220.783,372.504 220.984 C 372.676 221.091,372.793 220.746,372.793 220.133 C 372.793 219.075,372.741 218.962,372.407 219.296 M372.039 223.043 C 372.061 224.099,372.173 224.485,372.431 224.387 C 372.848 224.230,372.928 223.155,372.523 223.155 C 372.374 223.155,372.198 222.797,372.131 222.359 C 372.064 221.921,372.023 222.229,372.039 223.043 M56.444 233.230 C 56.442 233.459,56.297 233.520,56.078 233.386 C 55.877 233.262,55.933 233.494,56.204 233.909 C 56.473 234.320,56.743 235.226,56.805 235.924 C 56.902 237.012,56.924 236.945,56.964 235.456 C 56.989 234.501,56.884 233.524,56.729 233.285 C 56.526 232.970,56.448 232.955,56.444 233.230 M341.245 235.890 C 341.245 236.686,341.375 237.337,341.534 237.337 C 341.693 237.337,341.823 236.686,341.823 235.890 C 341.823 235.094,341.693 234.443,341.534 234.443 C 341.375 234.443,341.245 235.094,341.245 235.890 M345.301 236.086 C 345.309 236.530,345.843 237.177,346.039 236.981 C 346.146 236.874,346.023 236.575,345.765 236.317 C 345.508 236.060,345.299 235.956,345.301 236.086 M341.069 241.823 C 341.070 244.052,341.115 244.926,341.170 243.764 C 341.225 242.603,341.225 240.780,341.169 239.712 C 341.114 238.645,341.069 239.595,341.069 241.823 M91.255 254.848 C 91.257 255.644,91.313 255.935,91.380 255.495 C 91.446 255.055,91.445 254.404,91.376 254.048 C 91.307 253.692,91.253 254.052,91.255 254.848 M335.005 256.561 C 334.696 256.787,334.541 257.069,334.660 257.188 C 334.780 257.307,334.877 257.253,334.877 257.067 C 334.877 256.881,335.072 256.729,335.311 256.729 C 335.550 256.729,335.745 256.599,335.745 256.440 C 335.745 256.061,335.673 256.073,335.005 256.561 M85.311 257.331 C 85.033 257.494,84.807 257.783,84.809 257.974 C 84.812 258.214,84.879 258.224,85.026 258.007 C 85.143 257.834,85.499 257.545,85.818 257.365 C 86.136 257.184,86.266 257.036,86.107 257.036 C 85.948 257.036,85.590 257.169,85.311 257.331 M91.239 261.650 C 91.239 262.207,91.299 262.435,91.372 262.156 C 91.445 261.878,91.445 261.422,91.372 261.143 C 91.299 260.865,91.239 261.093,91.239 261.650 M261.433 263.289 C 260.949 263.484,260.970 264.444,261.462 264.632 C 261.739 264.739,261.845 264.537,261.824 263.940 C 261.808 263.477,261.795 263.108,261.795 263.120 C 261.795 263.133,261.632 263.208,261.433 263.289 M94.210 276.699 C 94.308 276.857,94.674 277.134,95.023 277.313 L 95.658 277.640 95.019 277.026 C 94.352 276.384,93.904 276.203,94.210 276.699 " stroke="none" fill="#5c5c5c" fill-rule="evenodd"></path><path id="path3" d="M109.536 7.809 C 109.188 8.157,109.001 8.171,108.538 7.881 C 107.792 7.416,107.670 7.432,107.670 7.993 C 107.670 8.336,107.477 8.424,106.946 8.323 C 106.448 8.227,106.223 8.313,106.223 8.598 C 106.223 8.871,106.038 8.953,105.678 8.839 C 105.325 8.727,105.070 8.832,104.952 9.139 C 104.848 9.411,104.587 9.541,104.339 9.446 C 104.102 9.355,103.906 9.374,103.904 9.488 C 103.902 9.602,103.349 9.956,102.674 10.273 C 101.999 10.590,101.275 11.013,101.065 11.214 C 100.854 11.414,100.496 11.577,100.269 11.577 C 100.041 11.577,99.854 11.740,99.853 11.939 C 99.851 12.394,98.104 13.603,97.450 13.603 C 97.172 13.603,96.961 13.829,96.961 14.124 C 96.961 14.802,96.409 15.340,95.714 15.340 C 95.269 15.340,95.197 15.481,95.343 16.064 C 95.476 16.593,95.409 16.787,95.094 16.787 C 94.830 16.787,94.728 16.955,94.830 17.221 C 94.933 17.489,94.829 17.656,94.559 17.656 C 94.263 17.656,94.170 17.844,94.272 18.234 C 94.357 18.558,94.281 18.813,94.100 18.813 C 93.923 18.813,93.777 19.009,93.777 19.247 C 93.777 19.486,93.651 19.682,93.497 19.682 C 93.343 19.682,93.299 19.896,93.399 20.158 C 93.510 20.446,93.378 20.783,93.063 21.013 C 92.737 21.251,92.602 21.611,92.700 21.984 C 92.805 22.388,92.715 22.576,92.416 22.576 C 92.093 22.576,92.026 22.766,92.159 23.300 C 92.274 23.757,92.219 24.023,92.008 24.023 C 91.789 24.023,91.732 24.370,91.840 25.036 C 91.967 25.819,91.905 26.049,91.568 26.049 C 91.187 26.049,91.143 27.083,91.224 34.154 C 91.275 38.611,91.235 42.258,91.135 42.258 C 90.735 42.257,90.305 41.434,90.475 40.992 C 90.601 40.661,90.495 40.521,90.118 40.519 C 89.500 40.518,86.831 37.872,86.831 37.261 C 86.831 36.666,86.499 36.433,86.110 36.756 C 85.880 36.947,85.574 36.854,85.155 36.464 C 84.816 36.148,84.404 35.890,84.238 35.890 C 84.072 35.890,83.936 35.699,83.936 35.465 C 83.936 35.206,83.767 35.105,83.502 35.206 C 83.263 35.298,83.068 35.241,83.068 35.080 C 83.068 34.918,82.808 34.855,82.489 34.938 C 82.166 35.022,81.910 34.947,81.910 34.766 C 81.910 34.588,81.585 34.443,81.187 34.443 C 80.736 34.443,80.463 34.279,80.463 34.009 C 80.463 33.480,80.126 33.450,79.633 33.936 C 79.339 34.226,79.198 34.212,78.924 33.864 C 78.651 33.518,77.819 33.430,74.819 33.430 C 71.820 33.430,70.987 33.518,70.712 33.864 C 70.428 34.223,70.264 34.235,69.772 33.934 C 69.265 33.624,69.175 33.640,69.175 34.040 C 69.175 34.386,68.983 34.474,68.452 34.372 C 67.966 34.279,67.728 34.363,67.728 34.628 C 67.728 34.844,67.478 35.022,67.173 35.022 C 66.868 35.022,66.570 35.168,66.510 35.347 C 66.450 35.526,66.054 35.673,65.630 35.673 C 65.205 35.673,64.885 35.819,64.918 35.999 C 64.951 36.178,64.750 36.306,64.472 36.284 C 64.193 36.262,63.965 36.414,63.965 36.622 C 63.965 37.028,62.250 38.205,61.659 38.205 C 61.086 38.205,59.258 40.195,59.427 40.635 C 59.512 40.856,59.330 41.306,59.024 41.635 C 58.717 41.964,58.466 42.369,58.466 42.535 C 58.466 42.955,57.971 42.913,57.765 42.475 C 57.671 42.276,57.663 42.471,57.746 42.909 C 57.830 43.347,57.778 43.705,57.630 43.705 C 57.483 43.705,57.431 43.965,57.514 44.284 C 57.622 44.697,57.523 44.863,57.167 44.863 C 56.741 44.863,56.699 45.041,56.876 46.093 C 57.606 50.425,57.326 61.559,56.499 61.083 C 55.656 60.598,53.835 58.829,53.835 58.494 C 53.835 58.320,53.570 58.177,53.247 58.177 C 52.924 58.177,52.584 57.981,52.493 57.742 C 52.401 57.504,52.080 57.308,51.780 57.308 C 51.480 57.308,51.083 57.065,50.898 56.768 C 50.695 56.444,50.348 56.284,50.027 56.368 C 49.734 56.445,49.493 56.374,49.493 56.211 C 49.493 56.049,49.233 55.983,48.915 56.067 C 48.519 56.170,48.336 56.076,48.336 55.768 C 48.336 55.416,48.116 55.354,47.323 55.483 C 46.512 55.615,46.310 55.553,46.310 55.175 C 46.310 54.597,44.309 54.505,43.755 55.058 C 43.476 55.338,43.281 55.338,42.833 55.058 C 42.072 54.583,40.209 54.588,40.304 55.065 C 40.350 55.294,40.058 55.418,39.508 55.403 C 39.030 55.390,38.535 55.553,38.408 55.765 C 38.281 55.977,37.930 56.151,37.629 56.151 C 37.328 56.151,37.001 56.281,36.903 56.440 C 36.805 56.599,36.534 56.729,36.301 56.729 C 36.069 56.729,35.334 57.073,34.668 57.494 C 33.896 57.981,33.417 58.138,33.346 57.926 C 33.202 57.494,32.706 57.802,32.706 58.325 C 32.706 58.941,29.861 61.650,29.214 61.650 C 28.759 61.650,28.678 61.788,28.814 62.332 C 28.922 62.759,28.816 63.183,28.530 63.469 C 28.280 63.719,28.075 64.063,28.075 64.234 C 28.075 64.405,27.815 64.544,27.496 64.544 C 27.068 64.544,26.918 64.737,26.918 65.285 C 26.918 65.716,26.794 65.949,26.621 65.842 C 26.427 65.722,26.390 66.064,26.514 66.838 C 26.669 67.812,26.620 68.017,26.231 68.017 C 25.720 68.017,25.594 68.460,26.028 68.728 C 26.627 69.098,26.423 126.997,25.822 127.319 C 25.513 127.484,21.926 127.633,17.385 127.670 C 9.562 127.733,9.479 127.740,8.818 128.401 L 8.150 129.069 8.150 146.940 C 8.150 164.237,8.168 164.824,8.706 165.201 C 9.012 165.415,9.262 165.778,9.262 166.008 C 9.262 166.260,9.548 166.425,9.986 166.425 C 10.384 166.425,10.709 166.328,10.709 166.208 C 10.708 165.884,25.565 166.121,25.898 166.451 C 26.292 166.841,26.298 225.141,25.904 225.292 C 25.745 225.354,25.862 225.594,26.164 225.826 C 26.571 226.139,26.663 226.448,26.521 227.017 C 26.406 227.472,26.448 227.786,26.623 227.786 C 26.785 227.786,26.918 228.111,26.918 228.509 C 26.918 228.928,27.084 229.233,27.313 229.233 C 27.925 229.233,29.260 231.406,28.881 231.785 C 28.660 232.006,28.786 232.149,29.320 232.283 C 29.732 232.387,30.726 233.166,31.529 234.016 C 32.333 234.865,33.252 235.643,33.572 235.744 C 33.892 235.846,34.153 236.038,34.153 236.171 C 34.153 236.304,34.544 236.548,35.022 236.715 C 35.499 236.881,35.890 237.142,35.890 237.295 C 35.890 237.448,36.151 237.504,36.469 237.421 C 36.787 237.338,37.048 237.403,37.048 237.566 C 37.048 237.729,37.307 237.794,37.623 237.711 C 37.984 237.617,38.264 237.731,38.373 238.015 C 38.499 238.344,38.780 238.423,39.385 238.302 C 39.998 238.180,40.271 238.261,40.403 238.604 C 40.669 239.297,45.872 239.300,46.138 238.607 C 46.263 238.280,46.549 238.184,47.088 238.287 C 47.552 238.375,48.027 238.267,48.279 238.014 C 48.511 237.783,48.878 237.662,49.097 237.746 C 49.315 237.829,49.493 237.757,49.493 237.584 C 49.493 237.411,49.754 237.338,50.072 237.421 C 50.391 237.504,50.651 237.454,50.651 237.310 C 50.651 237.166,50.847 237.048,51.085 237.048 C 51.324 237.048,51.520 236.918,51.520 236.758 C 51.520 236.599,51.715 236.469,51.954 236.469 C 52.192 236.469,52.388 236.347,52.388 236.199 C 52.388 236.050,52.653 235.845,52.976 235.742 C 53.300 235.640,54.164 234.914,54.897 234.131 C 55.630 233.347,56.398 232.706,56.604 232.706 C 57.025 232.706,57.354 245.635,56.947 246.151 C 56.520 246.691,56.704 248.843,57.194 249.031 C 57.459 249.133,57.587 249.394,57.492 249.641 C 57.401 249.878,57.467 250.072,57.638 250.072 C 57.825 250.072,57.884 250.391,57.785 250.868 C 57.695 251.306,57.691 251.501,57.778 251.302 C 57.988 250.821,58.466 250.840,58.466 251.330 C 58.466 251.544,58.728 251.957,59.049 252.247 C 59.391 252.556,59.566 252.981,59.473 253.274 C 59.295 253.836,60.021 254.703,60.670 254.703 C 60.904 254.703,61.253 254.832,61.445 254.988 C 61.637 255.145,62.218 255.613,62.735 256.027 C 63.253 256.442,63.676 256.973,63.676 257.209 C 63.676 257.505,63.854 257.580,64.256 257.453 C 64.641 257.330,64.895 257.421,65.010 257.721 C 65.106 257.970,65.292 258.106,65.425 258.024 C 65.558 257.942,65.784 258.085,65.927 258.341 C 66.071 258.598,66.307 258.828,66.451 258.854 C 66.596 258.879,66.677 259.014,66.631 259.153 C 66.584 259.292,66.749 259.328,66.996 259.233 C 67.649 258.982,69.175 259.348,69.175 259.755 C 69.175 259.976,69.489 260.056,70.040 259.975 C 70.652 259.886,70.958 259.985,71.084 260.315 C 71.277 260.817,72.648 260.972,72.648 260.492 C 72.648 260.323,73.613 260.203,74.964 260.203 C 76.315 260.203,77.279 260.323,77.279 260.492 C 77.279 260.970,78.361 260.818,78.555 260.312 C 78.689 259.964,78.959 259.887,79.599 260.015 C 80.250 260.145,80.463 260.081,80.463 259.756 C 80.463 259.446,80.657 259.372,81.147 259.495 C 81.632 259.617,81.887 259.524,82.019 259.179 C 82.171 258.782,82.287 258.757,82.637 259.048 C 82.990 259.341,83.068 259.315,83.068 258.905 C 83.068 258.579,83.219 258.462,83.502 258.571 C 83.767 258.672,83.936 258.571,83.936 258.312 C 83.936 258.078,84.132 257.887,84.370 257.887 C 84.609 257.887,84.805 257.778,84.805 257.644 C 84.805 257.152,86.323 256.667,86.583 257.076 C 86.751 257.341,86.823 257.264,86.826 256.818 C 86.831 256.122,89.562 253.234,90.116 253.338 C 90.299 253.373,90.406 253.154,90.354 252.853 C 90.265 252.338,90.721 251.823,91.275 251.813 C 91.411 251.811,91.476 255.389,91.420 259.765 C 91.348 265.330,91.412 267.758,91.633 267.843 C 91.808 267.910,91.890 268.360,91.817 268.859 C 91.731 269.443,91.808 269.754,92.039 269.754 C 92.272 269.754,92.331 270.001,92.211 270.478 C 92.076 271.014,92.144 271.201,92.475 271.201 C 92.798 271.201,92.873 271.388,92.748 271.886 C 92.630 272.354,92.718 272.624,93.027 272.743 C 93.306 272.850,93.408 273.099,93.293 273.397 C 93.179 273.695,93.297 273.983,93.604 274.155 C 93.994 274.373,94.026 274.519,93.758 274.842 C 93.486 275.170,93.518 275.253,93.917 275.253 C 94.243 275.253,94.360 275.405,94.251 275.687 C 94.147 275.960,94.254 276.122,94.541 276.122 C 94.827 276.122,94.935 276.283,94.830 276.556 C 94.726 276.829,94.833 276.990,95.120 276.990 C 95.466 276.990,95.531 277.170,95.390 277.735 C 95.229 278.373,95.328 278.527,96.082 278.811 C 96.717 279.051,96.961 279.331,96.961 279.822 C 96.961 280.373,97.072 280.467,97.547 280.316 C 97.978 280.179,98.403 280.400,99.153 281.150 C 99.714 281.711,100.427 282.250,100.737 282.349 C 101.048 282.447,101.302 282.722,101.302 282.960 C 101.302 283.197,101.432 283.311,101.591 283.213 C 101.875 283.038,103.593 283.849,103.940 284.323 C 104.037 284.456,104.200 284.554,104.302 284.540 C 104.888 284.461,105.065 284.564,105.065 284.985 C 105.065 285.368,105.145 285.388,105.496 285.097 C 105.846 284.807,105.962 284.831,106.114 285.228 C 106.247 285.575,106.501 285.666,106.992 285.543 C 107.452 285.427,107.736 285.509,107.844 285.789 C 107.959 286.089,108.285 286.163,108.995 286.047 C 109.784 285.919,109.986 285.983,109.986 286.359 C 109.986 286.669,110.233 286.831,110.709 286.831 C 111.107 286.831,111.433 286.700,111.433 286.541 C 111.433 286.370,112.494 286.252,114.038 286.252 C 115.581 286.252,116.643 286.370,116.643 286.541 C 116.643 287.021,118.014 286.866,118.207 286.365 C 118.345 286.005,118.615 285.942,119.395 286.089 C 120.220 286.243,120.405 286.190,120.405 285.797 C 120.405 285.443,120.592 285.352,121.114 285.452 C 121.547 285.534,121.882 285.435,121.974 285.196 C 122.162 284.704,122.913 284.685,123.108 285.166 C 123.201 285.396,123.262 285.356,123.277 285.055 C 123.299 284.594,124.242 284.119,124.964 284.207 C 125.163 284.231,125.326 284.036,125.326 283.773 C 125.326 283.480,125.484 283.356,125.736 283.453 C 125.961 283.540,126.218 283.423,126.306 283.194 C 126.393 282.966,126.730 282.779,127.053 282.779 C 127.377 282.779,127.641 282.592,127.641 282.364 C 127.641 281.903,128.634 281.485,129.077 281.759 C 129.233 281.855,129.441 281.615,129.539 281.224 C 129.737 280.433,131.015 279.178,131.911 278.894 C 132.232 278.792,132.489 278.550,132.482 278.356 C 132.450 277.396,132.600 276.990,132.987 276.990 C 133.246 276.990,133.347 276.820,133.245 276.556 C 133.135 276.269,133.255 276.122,133.601 276.122 C 133.974 276.122,134.035 276.032,133.814 275.811 C 133.417 275.414,133.980 274.101,134.549 274.098 C 134.806 274.096,134.890 273.886,134.788 273.499 C 134.690 273.124,134.794 272.840,135.067 272.735 C 135.322 272.638,135.444 272.345,135.362 272.030 C 135.284 271.733,135.355 271.491,135.519 271.491 C 135.696 271.491,135.747 271.138,135.644 270.622 C 135.527 270.036,135.585 269.754,135.825 269.754 C 136.104 269.754,136.162 258.730,136.098 218.185 C 136.033 176.517,136.088 166.571,136.388 166.382 C 136.592 166.254,146.331 166.238,158.032 166.347 C 183.663 166.587,211.539 166.586,240.302 166.345 C 261.177 166.170,261.652 166.179,261.944 166.724 C 262.339 167.462,262.320 265.611,261.925 265.856 C 261.431 266.161,261.583 269.754,262.089 269.754 C 262.414 269.754,262.482 269.944,262.348 270.478 C 262.228 270.952,262.287 271.201,262.518 271.201 C 262.749 271.201,262.808 271.450,262.689 271.925 C 262.551 272.475,262.620 272.648,262.978 272.648 C 263.341 272.648,263.406 272.821,263.261 273.400 C 263.112 273.991,263.237 274.293,263.845 274.815 C 264.270 275.181,264.528 275.624,264.419 275.800 C 264.306 275.983,264.415 276.122,264.672 276.122 C 265.199 276.122,265.255 276.452,264.804 276.903 C 264.573 277.135,264.651 277.274,265.094 277.415 C 265.440 277.525,265.702 277.853,265.702 278.176 C 265.702 278.489,265.930 278.825,266.208 278.923 C 266.959 279.188,268.017 280.216,268.017 280.679 C 268.017 281.215,268.811 281.991,269.147 281.783 C 269.565 281.524,270.333 281.928,270.333 282.406 C 270.333 282.658,270.502 282.776,270.735 282.686 C 270.957 282.601,271.399 282.775,271.717 283.072 C 272.036 283.369,272.373 283.536,272.466 283.443 C 272.559 283.351,272.714 283.480,272.810 283.732 C 272.907 283.983,273.170 284.118,273.396 284.032 C 273.626 283.944,273.806 284.047,273.807 284.267 C 273.807 284.508,274.162 284.673,274.723 284.693 C 275.226 284.711,275.779 284.908,275.952 285.130 C 276.125 285.351,276.560 285.490,276.919 285.438 C 277.300 285.382,277.640 285.523,277.737 285.775 C 277.858 286.090,278.173 286.164,278.894 286.047 C 279.682 285.919,279.884 285.983,279.884 286.359 C 279.884 286.885,281.173 287.033,281.476 286.541 C 281.709 286.164,286.453 286.164,286.686 286.541 C 286.969 286.998,287.908 286.878,288.107 286.359 C 288.245 286.001,288.529 285.927,289.296 286.052 C 290.073 286.178,290.304 286.116,290.304 285.780 C 290.304 285.471,290.478 285.400,290.904 285.535 C 291.306 285.662,291.626 285.559,291.873 285.221 C 292.131 284.869,292.304 284.817,292.448 285.050 C 292.561 285.234,292.784 285.384,292.943 285.384 C 293.102 285.384,293.161 285.268,293.074 285.127 C 292.987 284.986,293.109 284.709,293.346 284.513 C 293.583 284.316,293.777 284.252,293.777 284.370 C 293.777 284.489,293.967 284.429,294.199 284.236 C 294.430 284.044,294.756 283.971,294.922 284.073 C 295.088 284.176,295.224 284.057,295.224 283.809 C 295.224 283.416,295.744 283.211,296.454 283.323 C 296.574 283.342,296.671 283.162,296.671 282.923 C 296.671 282.685,296.840 282.489,297.045 282.489 C 297.250 282.489,297.994 281.968,298.698 281.331 C 299.553 280.557,300.149 280.228,300.495 280.338 C 300.883 280.461,301.013 280.346,301.013 279.883 C 301.013 279.098,301.665 278.437,302.440 278.437 C 303.111 278.437,303.207 278.142,302.701 277.636 C 302.444 277.379,302.478 277.254,302.846 277.113 C 303.111 277.011,303.329 276.747,303.329 276.525 C 303.329 276.303,303.473 276.122,303.649 276.122 C 303.825 276.122,303.894 275.926,303.803 275.687 C 303.704 275.431,303.799 275.253,304.034 275.253 C 304.290 275.253,304.378 275.046,304.281 274.674 C 304.197 274.356,304.271 274.096,304.443 274.096 C 304.616 274.096,304.683 273.901,304.592 273.664 C 304.497 273.417,304.625 273.156,304.890 273.054 C 305.146 272.956,305.355 272.694,305.355 272.473 C 305.355 272.251,305.502 272.069,305.682 272.069 C 305.898 272.069,305.956 271.668,305.851 270.890 C 305.725 269.950,305.776 269.743,306.103 269.868 C 306.596 270.057,306.647 269.426,306.177 268.956 C 305.923 268.702,305.940 268.503,306.245 268.135 C 306.568 267.747,306.649 266.078,306.653 259.802 C 306.656 253.021,306.716 251.954,307.091 251.954 C 307.331 251.954,307.649 252.374,307.802 252.894 C 307.959 253.427,308.273 253.836,308.526 253.838 C 309.115 253.842,310.854 255.646,310.854 256.254 C 310.854 256.556,311.094 256.729,311.513 256.729 C 312.218 256.729,313.250 257.695,312.928 258.054 C 312.822 258.172,312.901 258.174,313.104 258.057 C 313.490 257.835,315.195 258.454,315.195 258.817 C 315.195 258.932,315.390 258.952,315.627 258.861 C 315.875 258.766,316.136 258.896,316.240 259.168 C 316.358 259.475,316.613 259.580,316.966 259.468 C 317.346 259.348,317.511 259.437,317.511 259.762 C 317.511 260.139,317.706 260.192,318.524 260.039 C 319.341 259.885,319.537 259.939,319.537 260.315 C 319.537 260.827,320.547 260.965,320.839 260.492 C 321.073 260.115,325.237 260.115,325.470 260.492 C 325.752 260.947,326.692 260.830,326.890 260.315 C 327.016 259.987,327.322 259.886,327.923 259.974 C 328.488 260.057,328.830 259.959,328.936 259.684 C 329.032 259.435,329.326 259.329,329.671 259.419 C 329.987 259.502,330.246 259.443,330.246 259.288 C 330.246 259.133,330.507 259.089,330.825 259.190 C 331.238 259.321,331.404 259.242,331.404 258.912 C 331.404 258.634,331.740 258.384,332.254 258.282 C 332.721 258.188,333.172 257.933,333.256 257.715 C 333.339 257.497,333.607 257.394,333.851 257.488 C 334.123 257.592,334.372 257.451,334.499 257.121 C 334.782 256.383,335.812 255.561,336.258 255.718 C 336.722 255.881,339.012 253.625,338.775 253.240 C 338.566 252.903,339.720 250.941,340.128 250.941 C 340.283 250.941,340.335 250.819,340.244 250.671 C 340.152 250.523,340.219 250.314,340.391 250.208 C 340.564 250.101,340.633 249.827,340.546 249.598 C 340.458 249.369,340.553 249.118,340.757 249.040 C 341.050 248.928,341.102 247.254,341.005 241.070 C 340.920 235.656,340.980 233.145,341.198 232.927 C 341.551 232.573,344.063 234.581,344.112 235.256 C 344.127 235.464,344.264 235.557,344.418 235.462 C 344.571 235.368,344.962 235.555,345.286 235.879 C 345.610 236.204,346.006 236.469,346.165 236.469 C 346.324 236.469,346.454 236.605,346.454 236.771 C 346.454 236.937,346.682 237.035,346.961 236.988 C 347.240 236.941,347.439 237.052,347.405 237.235 C 347.368 237.432,347.574 237.507,347.911 237.418 C 348.323 237.311,348.487 237.419,348.503 237.810 C 348.516 238.115,348.590 238.193,348.672 237.988 C 348.876 237.484,349.621 237.536,349.826 238.068 C 349.952 238.397,350.242 238.462,350.974 238.325 C 351.758 238.178,351.954 238.234,351.954 238.607 C 351.954 239.303,357.303 239.303,357.570 238.607 C 357.698 238.275,357.980 238.184,358.542 238.293 C 359.038 238.389,359.522 238.278,359.835 237.997 C 360.252 237.623,360.414 237.611,360.792 237.925 C 361.172 238.240,361.233 238.234,361.160 237.893 C 361.101 237.619,361.289 237.505,361.722 237.551 C 362.083 237.589,362.375 237.460,362.377 237.261 C 362.381 236.814,364.529 235.757,364.931 236.005 C 365.093 236.106,365.316 235.893,365.425 235.532 C 365.646 234.804,368.550 231.838,369.041 231.838 C 369.213 231.838,369.281 231.719,369.191 231.575 C 368.950 231.184,369.326 230.391,369.753 230.391 C 369.957 230.391,370.106 230.163,370.084 229.884 C 370.058 229.564,370.282 229.344,370.695 229.285 C 371.404 229.184,371.560 228.791,370.984 228.552 C 370.717 228.440,370.747 228.299,371.100 228.010 C 371.418 227.750,371.528 227.356,371.428 226.834 C 371.324 226.290,371.400 226.049,371.674 226.049 C 372.006 226.049,372.068 221.255,372.062 196.243 C 372.056 172.810,372.131 166.408,372.413 166.300 C 372.945 166.096,387.276 166.051,387.478 166.253 C 387.772 166.547,388.712 166.443,388.712 166.115 C 388.712 165.747,389.457 164.952,389.636 165.130 C 390.143 165.638,389.727 128.929,389.219 128.344 C 388.685 127.730,388.490 127.714,380.720 127.665 C 376.347 127.637,372.577 127.540,372.343 127.450 C 371.971 127.307,371.926 123.523,371.993 97.655 C 372.057 72.761,372.006 67.999,371.672 67.871 C 371.404 67.768,371.330 67.448,371.443 66.881 C 371.565 66.272,371.484 65.995,371.147 65.866 C 370.893 65.768,370.766 65.607,370.865 65.507 C 370.965 65.408,370.819 65.118,370.541 64.863 C 370.263 64.608,369.777 63.900,369.461 63.290 C 369.144 62.679,368.007 61.312,366.934 60.251 C 365.780 59.111,365.043 58.157,365.131 57.919 C 365.246 57.609,365.190 57.591,364.889 57.841 C 364.592 58.088,364.364 58.042,363.942 57.649 C 363.636 57.364,363.321 57.130,363.242 57.128 C 362.727 57.119,361.216 56.421,361.216 56.193 C 361.216 56.040,360.957 55.983,360.640 56.066 C 360.273 56.162,359.999 56.045,359.883 55.742 C 359.743 55.377,359.476 55.311,358.722 55.452 C 357.938 55.599,357.742 55.543,357.742 55.170 C 357.742 54.819,357.456 54.703,356.585 54.703 C 355.948 54.703,355.427 54.834,355.427 54.993 C 355.427 55.152,355.174 55.282,354.865 55.282 C 354.556 55.282,354.223 55.152,354.124 54.993 C 353.813 54.488,351.954 54.640,351.954 55.170 C 351.954 55.543,351.758 55.599,350.974 55.452 C 350.220 55.311,349.953 55.377,349.813 55.742 C 349.697 56.045,349.423 56.162,349.056 56.066 C 348.739 55.983,348.480 56.049,348.480 56.211 C 348.480 56.374,348.220 56.439,347.902 56.356 C 347.567 56.269,347.323 56.347,347.323 56.542 C 347.323 56.984,346.221 57.666,345.864 57.446 C 345.711 57.351,345.586 57.462,345.586 57.692 C 345.586 57.921,345.315 58.180,344.984 58.266 C 344.537 58.383,344.425 58.314,344.547 57.996 C 344.639 57.755,344.586 57.645,344.425 57.744 C 344.268 57.842,344.139 58.121,344.139 58.364 C 344.139 59.016,341.525 61.467,341.189 61.131 C 341.023 60.965,340.950 57.670,341.006 52.859 C 341.059 48.325,340.988 44.825,340.841 44.776 C 340.699 44.729,340.542 44.314,340.493 43.855 C 340.445 43.396,340.200 42.906,339.950 42.766 C 339.700 42.626,339.571 42.389,339.664 42.240 C 339.756 42.090,339.637 41.968,339.400 41.968 C 338.896 41.968,338.550 41.091,338.799 40.443 C 338.910 40.153,338.765 39.929,338.386 39.809 C 338.064 39.707,337.723 39.376,337.627 39.074 C 337.531 38.772,337.198 38.444,336.888 38.346 C 336.578 38.247,336.322 38.012,336.320 37.824 C 336.316 37.572,336.256 37.575,336.090 37.837 C 335.824 38.256,334.022 37.139,334.014 36.550 C 334.011 36.356,333.826 36.268,333.604 36.353 C 333.381 36.438,333.113 36.369,333.007 36.198 C 332.902 36.028,332.238 35.625,331.531 35.303 C 330.824 34.981,330.246 34.613,330.246 34.485 C 330.246 34.357,329.953 34.262,329.595 34.275 C 329.219 34.288,328.974 34.145,329.016 33.936 C 329.102 33.505,328.620 33.452,328.365 33.864 C 328.124 34.253,327.762 34.228,327.300 33.792 C 327.036 33.542,325.797 33.430,323.300 33.430 C 320.802 33.430,319.563 33.542,319.299 33.792 C 318.837 34.228,318.475 34.253,318.234 33.864 C 317.963 33.424,317.511 33.518,317.511 34.014 C 317.511 34.339,317.321 34.406,316.787 34.272 C 316.282 34.145,316.063 34.209,316.061 34.484 C 316.058 35.051,314.744 35.612,314.348 35.216 C 314.127 34.995,314.038 35.048,314.038 35.398 C 314.038 35.669,313.871 35.890,313.667 35.890 C 313.464 35.890,313.109 36.151,312.880 36.469 C 312.414 37.116,311.735 37.241,311.699 36.686 C 311.686 36.487,311.523 36.665,311.337 37.082 C 310.939 37.974,308.651 40.521,308.248 40.521 C 308.096 40.521,307.891 40.837,307.794 41.224 C 307.584 42.061,306.849 42.427,306.612 41.811 C 306.520 41.571,306.496 37.929,306.558 33.718 C 306.648 27.695,306.593 26.031,306.303 25.920 C 305.868 25.753,305.801 24.891,306.223 24.891 C 306.382 24.891,306.512 24.696,306.512 24.457 C 306.512 24.219,306.343 24.023,306.136 24.023 C 305.877 24.023,305.797 23.709,305.878 23.010 C 305.951 22.390,305.872 21.997,305.676 21.997 C 305.499 21.997,305.355 21.737,305.355 21.418 C 305.355 21.100,305.192 20.872,304.993 20.912 C 304.784 20.953,304.641 20.708,304.654 20.333 C 304.667 19.975,304.560 19.682,304.417 19.682 C 304.275 19.682,304.240 19.421,304.342 19.103 C 304.447 18.771,304.394 18.524,304.216 18.524 C 304.046 18.524,303.907 18.329,303.907 18.090 C 303.907 17.851,303.777 17.656,303.618 17.656 C 303.459 17.656,303.329 17.460,303.329 17.221 C 303.329 16.983,303.190 16.787,303.021 16.787 C 302.852 16.787,302.754 16.497,302.804 16.143 C 302.868 15.688,302.725 15.467,302.315 15.388 C 301.544 15.241,301.013 14.785,301.013 14.271 C 301.013 13.794,300.293 12.986,299.943 13.070 C 299.309 13.222,298.119 12.309,298.119 11.670 C 298.119 11.087,298.014 11.014,297.395 11.169 C 296.793 11.320,296.671 11.247,296.671 10.735 C 296.671 10.223,296.550 10.150,295.948 10.301 C 295.417 10.434,295.224 10.367,295.224 10.049 C 295.224 9.811,295.062 9.622,294.863 9.629 C 293.701 9.672,293.198 9.507,293.198 9.083 C 293.198 8.758,293.022 8.662,292.620 8.767 C 292.301 8.850,291.968 8.800,291.879 8.656 C 291.790 8.512,291.399 8.394,291.010 8.394 C 290.575 8.394,290.304 8.227,290.304 7.959 C 290.304 7.468,289.851 7.377,289.580 7.815 C 289.340 8.204,288.977 8.179,288.516 7.742 C 287.914 7.173,279.852 7.237,279.397 7.815 C 279.123 8.162,278.982 8.177,278.688 7.887 C 278.173 7.379,277.569 7.437,277.569 7.993 C 277.569 8.336,277.376 8.424,276.845 8.323 C 276.447 8.247,276.122 8.287,276.122 8.413 C 276.122 8.869,274.450 9.501,274.119 9.170 C 273.895 8.945,273.805 8.975,273.804 9.276 C 273.801 9.767,272.414 10.488,271.984 10.222 C 271.822 10.122,271.779 10.183,271.888 10.360 C 272.118 10.733,271.226 11.271,270.695 11.080 C 270.496 11.009,270.333 11.160,270.333 11.416 C 270.333 11.702,269.997 11.948,269.465 12.055 C 268.931 12.162,268.594 12.410,268.590 12.699 C 268.583 13.214,266.769 14.906,266.224 14.906 C 266.037 14.906,265.774 15.329,265.640 15.847 C 265.487 16.435,265.215 16.787,264.912 16.787 C 264.568 16.787,264.518 16.877,264.739 17.098 C 265.113 17.472,264.587 18.808,264.065 18.811 C 263.873 18.812,263.795 19.060,263.881 19.392 C 263.989 19.802,263.890 19.971,263.545 19.971 C 263.190 19.971,263.108 20.127,263.242 20.550 C 263.376 20.972,263.294 21.129,262.940 21.129 C 262.568 21.129,262.497 21.296,262.637 21.852 C 262.748 22.295,262.695 22.576,262.501 22.576 C 262.298 22.576,262.252 22.891,262.373 23.444 C 262.522 24.123,262.464 24.313,262.107 24.313 C 261.619 24.313,261.466 25.322,261.911 25.598 C 262.307 25.843,262.338 126.317,261.942 127.057 C 261.592 127.711,251.520 127.996,251.520 127.352 C 251.520 127.160,233.810 127.062,198.970 127.062 C 164.011 127.062,146.480 127.159,146.599 127.352 C 146.817 127.704,136.944 127.750,136.391 127.399 C 136.095 127.211,136.038 117.069,136.101 75.742 C 136.159 37.816,136.094 24.286,135.853 24.194 C 135.668 24.123,135.592 23.732,135.677 23.284 C 135.782 22.736,135.680 22.418,135.336 22.225 C 134.949 22.009,134.917 21.863,135.186 21.540 C 135.456 21.214,135.431 21.129,135.066 21.129 C 134.769 21.129,134.667 20.969,134.778 20.681 C 134.876 20.425,134.729 20.071,134.435 19.856 C 134.152 19.649,134.005 19.344,134.108 19.177 C 134.211 19.010,134.092 18.796,133.844 18.701 C 133.596 18.606,133.469 18.406,133.561 18.256 C 133.653 18.107,133.587 17.898,133.415 17.791 C 133.242 17.684,133.171 17.415,133.256 17.192 C 133.347 16.956,133.230 16.787,132.976 16.787 C 132.674 16.787,132.565 16.545,132.623 16.002 C 132.686 15.409,132.564 15.189,132.127 15.105 C 131.404 14.967,129.977 13.661,129.661 12.848 C 129.519 12.485,129.063 12.166,128.532 12.060 C 127.886 11.930,127.641 11.719,127.641 11.290 C 127.641 10.803,127.513 10.730,126.918 10.880 C 126.375 11.016,126.194 10.947,126.194 10.605 C 126.194 10.318,126.033 10.210,125.760 10.315 C 125.481 10.422,125.326 10.309,125.326 9.999 C 125.326 9.734,125.214 9.586,125.077 9.671 C 124.796 9.845,123.305 9.220,123.302 8.927 C 123.301 8.823,123.039 8.805,122.721 8.889 C 122.321 8.993,122.142 8.898,122.142 8.579 C 122.142 8.222,121.947 8.158,121.274 8.292 C 120.594 8.428,120.405 8.364,120.405 7.996 C 120.405 7.737,120.210 7.525,119.971 7.525 C 119.732 7.525,119.537 7.656,119.537 7.815 C 119.537 8.214,119.077 8.178,118.617 7.742 C 118.023 7.180,110.107 7.238,109.536 7.809 M117.540 13.714 C 124.623 15.196,130.192 20.143,131.870 26.445 C 132.201 27.689,132.266 47.270,132.269 147.058 L 132.272 266.185 131.666 268.042 C 127.157 281.854,108.098 284.781,99.460 272.988 C 96.315 268.694,95.848 266.787,95.520 256.874 C 95.130 245.104,95.140 33.371,95.530 31.132 C 96.415 26.062,97.272 23.888,99.671 20.633 C 103.626 15.267,111.110 12.368,117.540 13.714 M287.410 13.763 C 294.864 15.305,300.889 21.528,302.247 29.088 C 302.697 31.588,302.908 260.129,302.464 262.952 C 301.437 269.483,299.415 273.200,295.040 276.600 C 285.297 284.171,270.932 280.046,266.489 268.400 L 265.847 266.715 265.770 149.363 C 265.729 84.819,265.807 30.665,265.945 29.021 C 266.786 18.977,277.116 11.635,287.410 13.763 M81.448 39.090 C 84.950 40.837,87.099 43.218,88.779 47.216 L 89.554 49.059 89.739 78.148 C 90.198 150.322,89.772 243.506,88.972 245.957 C 84.571 259.448,66.481 259.553,61.728 246.115 L 60.926 243.849 60.926 147.033 C 60.926 38.698,60.722 49.397,62.872 45.055 C 65.939 38.864,75.097 35.923,81.448 39.090 M326.938 38.401 C 331.934 40.099,334.880 43.118,336.446 48.145 L 337.192 50.539 337.192 146.874 L 337.192 243.208 336.581 245.265 C 334.914 250.870,331.378 254.312,325.726 255.830 C 323.574 256.409,318.729 256.018,317.911 255.200 C 317.797 255.086,317.520 254.993,317.296 254.993 C 314.727 254.993,309.749 249.088,308.878 245.007 C 307.937 240.600,307.937 53.103,308.877 48.826 C 310.595 41.010,319.498 35.871,326.938 38.401 M48.046 60.764 C 52.075 62.156,55.661 65.771,56.583 69.369 C 56.975 70.900,57.017 79.775,56.950 147.776 L 56.874 224.457 56.006 226.175 C 50.641 236.788,33.886 236.095,30.219 225.108 C 29.411 222.685,29.391 70.981,30.199 68.663 C 32.492 62.084,40.985 58.325,48.046 60.764 M358.135 60.374 C 362.232 61.435,365.710 64.131,367.438 67.585 L 368.307 69.320 368.307 146.912 L 368.307 224.503 367.450 226.217 C 365.852 229.410,363.129 231.674,358.900 233.324 C 353.435 235.456,345.336 232.140,342.193 226.483 L 341.389 225.036 341.389 146.889 L 341.389 68.741 342.243 67.294 C 345.559 61.670,352.116 58.815,358.135 60.374 M386.697 130.465 C 386.703 130.583,386.718 138.039,386.730 147.033 L 386.752 163.386 380.134 163.468 C 376.495 163.513,373.223 163.478,372.863 163.390 L 372.209 163.229 372.284 146.955 L 372.359 130.680 378.292 130.535 C 381.556 130.456,384.779 130.359,385.456 130.320 C 386.132 130.282,386.691 130.347,386.697 130.465 M25.918 146.677 C 25.925 155.476,25.860 162.790,25.773 162.930 C 25.686 163.071,22.391 163.282,18.452 163.399 L 11.288 163.612 11.288 147.069 L 11.288 130.526 18.596 130.603 L 25.904 130.680 25.918 146.677 M261.795 146.889 L 261.795 163.097 199.059 163.170 L 136.324 163.243 136.324 147.082 C 136.324 138.194,136.411 130.834,136.518 130.728 C 136.624 130.621,164.855 130.567,199.253 130.607 L 261.795 130.680 261.795 146.889 " stroke="none" fill="#040505" fill-rule="evenodd"></path><path id="path4" d="M111.433 6.946 C 111.433 7.106,111.693 7.236,112.012 7.236 C 112.330 7.236,112.590 7.106,112.590 6.946 C 112.590 6.787,112.330 6.657,112.012 6.657 C 111.693 6.657,111.433 6.787,111.433 6.946 M115.774 6.946 C 115.774 7.106,116.100 7.236,116.498 7.236 C 116.896 7.236,117.221 7.106,117.221 6.946 C 117.221 6.787,116.896 6.657,116.498 6.657 C 116.100 6.657,115.774 6.787,115.774 6.946 M280.753 6.946 C 280.753 7.106,281.143 7.236,281.621 7.236 C 282.098 7.236,282.489 7.106,282.489 6.946 C 282.489 6.787,282.098 6.657,281.621 6.657 C 281.143 6.657,280.753 6.787,280.753 6.946 M285.384 6.946 C 285.384 7.106,285.709 7.236,286.107 7.236 C 286.505 7.236,286.831 7.106,286.831 6.946 C 286.831 6.787,286.505 6.657,286.107 6.657 C 285.709 6.657,285.384 6.787,285.384 6.946 M290.883 7.815 C 290.883 7.974,291.078 8.104,291.317 8.104 C 291.556 8.104,291.751 7.974,291.751 7.815 C 291.751 7.656,291.556 7.525,291.317 7.525 C 291.078 7.525,290.883 7.656,290.883 7.815 M129.957 12.749 C 129.957 13.102,131.371 14.472,131.735 14.472 C 132.215 14.472,131.976 13.930,131.419 13.753 C 131.108 13.654,130.774 13.320,130.675 13.010 C 130.488 12.419,129.957 12.226,129.957 12.749 M267.298 13.010 C 267.200 13.320,266.866 13.654,266.555 13.753 C 266.026 13.921,265.735 14.765,266.208 14.758 C 266.471 14.754,268.307 12.895,268.307 12.632 C 268.307 12.183,267.460 12.500,267.298 13.010 M95.846 14.357 C 95.631 14.600,95.528 14.872,95.617 14.961 C 95.904 15.248,96.671 14.793,96.671 14.336 C 96.671 13.778,96.351 13.786,95.846 14.357 M301.302 14.147 C 301.302 14.510,302.152 15.166,302.357 14.961 C 302.452 14.866,302.328 14.587,302.081 14.341 C 301.578 13.838,301.302 13.769,301.302 14.147 M263.097 19.247 C 263.097 19.486,263.227 19.682,263.386 19.682 C 263.546 19.682,263.676 19.486,263.676 19.247 C 263.676 19.009,263.546 18.813,263.386 18.813 C 263.227 18.813,263.097 19.009,263.097 19.247 M261.071 26.194 C 261.071 26.751,261.201 27.207,261.360 27.207 C 261.520 27.207,261.650 26.751,261.650 26.194 C 261.650 25.637,261.520 25.181,261.360 25.181 C 261.201 25.181,261.071 25.637,261.071 26.194 M306.802 35.039 C 306.802 39.414,306.901 41.651,307.091 41.534 C 307.270 41.423,307.381 38.878,307.381 34.860 C 307.381 30.723,307.276 28.365,307.091 28.365 C 306.907 28.365,306.802 30.782,306.802 35.039 M261.071 79.016 C 261.071 110.854,261.169 127.062,261.360 127.062 C 261.552 127.062,261.650 110.854,261.650 79.016 C 261.650 47.178,261.552 30.970,261.360 30.970 C 261.169 30.970,261.071 47.178,261.071 79.016 M136.331 79.161 C 136.333 110.141,136.434 126.773,136.619 126.773 C 136.804 126.773,136.903 110.143,136.903 79.161 C 136.903 47.807,136.805 31.548,136.615 31.548 C 136.426 31.548,136.329 47.805,136.331 79.161 M72.069 32.996 C 72.069 33.155,72.395 33.285,72.793 33.285 C 73.191 33.285,73.517 33.155,73.517 32.996 C 73.517 32.836,73.191 32.706,72.793 32.706 C 72.395 32.706,72.069 32.836,72.069 32.996 M76.266 32.996 C 76.168 33.155,76.356 33.285,76.683 33.285 C 77.011 33.285,77.279 33.155,77.279 32.996 C 77.279 32.836,77.092 32.706,76.862 32.706 C 76.633 32.706,76.365 32.836,76.266 32.996 M320.695 32.996 C 320.695 33.155,320.955 33.285,321.274 33.285 C 321.592 33.285,321.852 33.155,321.852 32.996 C 321.852 32.836,321.592 32.706,321.274 32.706 C 320.955 32.706,320.695 32.836,320.695 32.996 M324.747 32.996 C 324.747 33.155,325.007 33.285,325.326 33.285 C 325.644 33.285,325.904 33.155,325.904 32.996 C 325.904 32.836,325.644 32.706,325.326 32.706 C 325.007 32.706,324.747 32.836,324.747 32.996 M81.097 33.886 C 81.154 34.057,81.325 34.197,81.476 34.197 C 81.627 34.197,81.798 34.057,81.855 33.886 C 81.912 33.715,81.741 33.575,81.476 33.575 C 81.211 33.575,81.040 33.715,81.097 33.886 M66.570 34.443 C 66.570 34.602,66.766 34.732,67.004 34.732 C 67.243 34.732,67.438 34.602,67.438 34.443 C 67.438 34.284,67.243 34.153,67.004 34.153 C 66.766 34.153,66.570 34.284,66.570 34.443 M62.771 36.668 C 62.421 37.098,62.437 37.132,62.904 36.957 C 63.195 36.848,63.553 36.758,63.700 36.758 C 63.846 36.758,63.965 36.628,63.965 36.469 C 63.965 36.007,63.205 36.134,62.771 36.668 M87.120 37.213 C 87.120 37.521,88.015 38.276,88.181 38.109 C 88.272 38.018,88.145 37.742,87.899 37.496 C 87.439 37.036,87.120 36.920,87.120 37.213 M309.190 38.398 C 307.967 39.700,307.695 40.232,308.249 40.232 C 308.408 40.232,308.538 40.118,308.538 39.980 C 308.538 39.841,309.059 39.222,309.696 38.605 C 310.799 37.535,311.111 37.024,310.637 37.068 C 310.517 37.079,309.866 37.677,309.190 38.398 M89.146 39.328 C 89.146 39.691,89.995 40.347,90.201 40.142 C 90.295 40.047,90.171 39.768,89.925 39.522 C 89.422 39.019,89.146 38.950,89.146 39.328 M341.245 53.256 C 341.245 57.887,341.349 60.492,341.534 60.492 C 341.719 60.492,341.823 57.887,341.823 53.256 C 341.823 48.625,341.719 46.020,341.534 46.020 C 341.349 46.020,341.245 48.625,341.245 53.256 M56.155 53.449 C 56.159 59.480,56.386 61.725,56.864 60.477 C 57.215 59.562,56.891 47.087,56.512 46.961 C 56.230 46.867,56.151 48.289,56.155 53.449 M42.547 54.703 C 42.547 54.863,42.873 54.993,43.271 54.993 C 43.669 54.993,43.994 54.863,43.994 54.703 C 43.994 54.544,43.669 54.414,43.271 54.414 C 42.873 54.414,42.547 54.544,42.547 54.703 M354.124 54.703 C 354.223 54.863,354.556 54.993,354.865 54.993 C 355.174 54.993,355.427 54.863,355.427 54.703 C 355.427 54.544,355.094 54.414,354.686 54.414 C 354.266 54.414,354.023 54.539,354.124 54.703 M46.889 54.993 C 46.889 55.152,47.149 55.282,47.467 55.282 C 47.786 55.282,48.046 55.152,48.046 54.993 C 48.046 54.834,47.786 54.703,47.467 54.703 C 47.149 54.703,46.889 54.834,46.889 54.993 M37.048 55.572 C 37.048 55.731,37.243 55.861,37.482 55.861 C 37.721 55.861,37.916 55.731,37.916 55.572 C 37.916 55.412,37.721 55.282,37.482 55.282 C 37.243 55.282,37.048 55.412,37.048 55.572 M35.601 56.151 C 35.601 56.310,35.796 56.440,36.035 56.440 C 36.274 56.440,36.469 56.310,36.469 56.151 C 36.469 55.991,36.274 55.861,36.035 55.861 C 35.796 55.861,35.601 55.991,35.601 56.151 M346.220 56.462 C 346.277 56.633,346.448 56.773,346.599 56.773 C 346.750 56.773,346.921 56.633,346.978 56.462 C 347.035 56.291,346.864 56.151,346.599 56.151 C 346.334 56.151,346.163 56.291,346.220 56.462 M33.575 57.019 C 33.575 57.178,33.770 57.308,34.009 57.308 C 34.247 57.308,34.443 57.178,34.443 57.019 C 34.443 56.860,34.247 56.729,34.009 56.729 C 33.770 56.729,33.575 56.860,33.575 57.019 M365.268 58.029 C 365.268 58.270,365.322 58.466,365.389 58.466 C 365.455 58.466,365.716 58.545,365.968 58.642 C 366.623 58.893,366.534 58.383,365.847 57.954 C 365.364 57.653,365.268 57.665,365.268 58.029 M343.024 58.641 C 342.497 59.237,342.836 59.520,343.402 58.955 C 343.648 58.709,343.849 58.433,343.849 58.342 C 343.849 58.038,343.420 58.194,343.024 58.641 M368.162 60.947 C 368.162 61.162,368.940 61.939,369.154 61.939 C 369.529 61.939,369.285 61.120,368.862 60.957 C 368.293 60.739,368.162 60.737,368.162 60.947 M25.760 67.004 C 25.760 67.243,25.890 67.438,26.049 67.438 C 26.208 67.438,26.339 67.243,26.339 67.004 C 26.339 66.766,26.208 66.570,26.049 66.570 C 25.890 66.570,25.760 66.766,25.760 67.004 M25.181 69.030 C 25.181 69.296,25.321 69.466,25.492 69.409 C 25.663 69.352,25.803 69.182,25.803 69.030 C 25.803 68.879,25.663 68.709,25.492 68.652 C 25.321 68.595,25.181 68.765,25.181 69.030 M25.185 100.958 C 25.182 118.311,25.278 127.036,25.470 126.918 C 25.861 126.676,25.861 75.858,25.470 75.253 C 25.288 74.971,25.188 83.975,25.185 100.958 M389.870 145.441 C 389.870 148.625,389.977 150.507,390.159 150.507 C 390.341 150.507,390.449 148.625,390.449 145.441 C 390.449 142.258,390.341 140.376,390.159 140.376 C 389.977 140.376,389.870 142.258,389.870 145.441 M7.525 146.913 C 7.525 149.003,7.614 149.657,7.887 149.566 C 8.226 149.453,8.431 145.474,8.148 144.501 C 7.817 143.366,7.525 144.498,7.525 146.913 M389.870 153.401 C 389.870 154.366,389.998 155.137,390.159 155.137 C 390.320 155.137,390.449 154.366,390.449 153.401 C 390.449 152.436,390.320 151.664,390.159 151.664 C 389.998 151.664,389.870 152.436,389.870 153.401 M25.181 173.227 C 25.181 177.518,25.281 179.712,25.470 179.595 C 25.649 179.485,25.760 177.041,25.760 173.227 C 25.760 169.414,25.649 166.970,25.470 166.860 C 25.281 166.742,25.181 168.937,25.181 173.227 M261.071 214.761 C 261.071 246.599,261.169 262.808,261.360 262.808 C 261.552 262.808,261.650 246.599,261.650 214.761 C 261.650 182.923,261.552 166.715,261.360 166.715 C 261.169 166.715,261.071 182.923,261.071 214.761 M136.324 214.599 C 136.324 246.017,136.423 262.255,136.614 262.373 C 136.806 262.492,136.903 246.554,136.903 214.778 C 136.903 183.122,136.805 167.004,136.614 167.004 C 136.422 167.004,136.324 183.062,136.324 214.599 M25.185 215.540 C 25.188 218.041,25.281 219.106,25.470 218.813 C 25.844 218.236,25.844 212.242,25.470 212.012 C 25.283 211.896,25.182 213.141,25.185 215.540 M25.185 222.087 C 25.183 222.942,25.292 223.409,25.470 223.300 C 25.838 223.072,25.838 221.698,25.470 221.129 C 25.268 220.815,25.189 221.081,25.185 222.087 M25.181 224.567 C 25.181 224.920,25.366 225.181,25.615 225.181 C 25.854 225.181,26.049 225.067,26.049 224.927 C 26.049 224.787,25.854 224.511,25.615 224.313 C 25.252 224.012,25.181 224.053,25.181 224.567 M25.760 226.773 C 25.760 227.012,25.890 227.207,26.049 227.207 C 26.208 227.207,26.339 227.012,26.339 226.773 C 26.339 226.534,26.208 226.339,26.049 226.339 C 25.890 226.339,25.760 226.534,25.760 226.773 M368.446 232.568 C 367.945 233.171,368.314 233.464,368.872 232.906 C 369.118 232.660,369.320 232.384,369.320 232.293 C 369.320 231.971,368.807 232.133,368.446 232.568 M29.233 232.965 C 29.233 233.107,29.439 233.302,29.691 233.399 C 30.399 233.671,30.469 233.612,29.998 233.140 C 29.506 232.648,29.233 232.586,29.233 232.965 M342.402 234.254 C 342.402 234.560,343.594 235.663,343.753 235.504 C 343.857 235.400,343.641 235.053,343.273 234.734 C 342.621 234.169,342.402 234.048,342.402 234.254 M31.686 235.201 C 31.944 235.459,32.243 235.582,32.350 235.475 C 32.457 235.367,32.353 235.158,32.119 235.010 C 31.435 234.578,31.177 234.692,31.686 235.201 M54.422 235.010 C 54.188 235.158,54.084 235.367,54.191 235.475 C 54.299 235.582,54.597 235.459,54.855 235.201 C 55.364 234.692,55.106 234.578,54.422 235.010 M362.663 237.337 C 362.663 237.496,362.858 237.627,363.097 237.627 C 363.336 237.627,363.531 237.496,363.531 237.337 C 363.531 237.178,363.336 237.048,363.097 237.048 C 362.858 237.048,362.663 237.178,362.663 237.337 M37.048 238.205 C 37.048 238.365,37.243 238.495,37.482 238.495 C 37.721 238.495,37.916 238.365,37.916 238.205 C 37.916 238.046,37.721 237.916,37.482 237.916 C 37.243 237.916,37.048 238.046,37.048 238.205 M56.151 242.137 C 56.151 245.385,56.234 246.330,56.512 246.237 C 56.711 246.171,56.861 245.965,56.845 245.779 C 56.829 245.593,56.797 243.748,56.773 241.679 C 56.746 239.392,56.616 237.916,56.440 237.916 C 56.260 237.916,56.151 239.516,56.151 242.137 M341.245 245.876 C 341.245 246.114,341.375 246.310,341.534 246.310 C 341.693 246.310,341.823 246.114,341.823 245.876 C 341.823 245.637,341.693 245.441,341.534 245.441 C 341.375 245.441,341.245 245.637,341.245 245.876 M58.177 252.533 C 58.177 252.771,58.307 252.967,58.466 252.967 C 58.625 252.967,58.755 252.771,58.755 252.533 C 58.755 252.294,58.625 252.098,58.466 252.098 C 58.307 252.098,58.177 252.294,58.177 252.533 M90.786 252.870 C 90.464 253.193,90.558 265.702,90.883 265.702 C 91.067 265.702,91.172 263.338,91.172 259.190 C 91.172 255.608,91.129 252.677,91.076 252.677 C 91.023 252.677,90.892 252.764,90.786 252.870 M88.482 255.035 C 86.814 256.809,86.886 257.304,88.566 255.607 C 89.216 254.951,89.873 254.414,90.026 254.414 C 90.179 254.414,90.304 254.219,90.304 253.980 C 90.304 253.271,89.946 253.478,88.482 255.035 M308.249 254.272 C 308.249 254.594,309.927 256.151,310.275 256.151 C 310.479 256.151,310.204 255.696,309.664 255.141 C 308.764 254.214,308.249 253.898,308.249 254.272 M331.829 258.770 C 331.554 259.215,331.931 259.502,332.302 259.131 C 332.510 258.923,332.515 258.761,332.317 258.639 C 332.155 258.538,331.935 258.598,331.829 258.770 M69.465 260.492 C 69.465 260.651,69.660 260.781,69.899 260.781 C 70.137 260.781,70.333 260.651,70.333 260.492 C 70.333 260.333,70.137 260.203,69.899 260.203 C 69.660 260.203,69.465 260.333,69.465 260.492 M318.090 260.492 C 318.090 260.651,318.285 260.781,318.524 260.781 C 318.763 260.781,318.958 260.651,318.958 260.492 C 318.958 260.333,318.763 260.203,318.524 260.203 C 318.285 260.203,318.090 260.333,318.090 260.492 M327.641 260.492 C 327.641 260.651,327.836 260.781,328.075 260.781 C 328.314 260.781,328.509 260.651,328.509 260.492 C 328.509 260.333,328.314 260.203,328.075 260.203 C 327.836 260.203,327.641 260.333,327.641 260.492 M72.504 260.781 C 72.402 260.946,72.651 261.071,73.082 261.071 C 73.514 261.071,73.763 260.946,73.661 260.781 C 73.563 260.622,73.302 260.492,73.082 260.492 C 72.862 260.492,72.602 260.622,72.504 260.781 M75.977 260.781 C 75.875 260.946,76.119 261.071,76.539 261.071 C 76.946 261.071,77.279 260.941,77.279 260.781 C 77.279 260.622,77.027 260.492,76.718 260.492 C 76.409 260.492,76.075 260.622,75.977 260.781 M320.695 260.781 C 320.695 260.941,321.118 261.069,321.635 261.066 C 322.349 261.063,322.471 260.994,322.142 260.781 C 321.573 260.414,320.695 260.414,320.695 260.781 M324.457 260.781 C 324.120 260.999,324.205 261.063,324.836 261.066 C 325.305 261.069,325.574 260.949,325.470 260.781 C 325.248 260.422,325.013 260.422,324.457 260.781 M306.995 264.158 C 306.692 264.461,306.769 265.702,307.091 265.702 C 307.250 265.702,307.381 265.311,307.381 264.834 C 307.381 263.934,307.322 263.831,306.995 264.158 M261.071 265.412 C 261.071 265.977,261.378 266.167,261.726 265.818 C 261.958 265.586,261.655 264.834,261.329 264.834 C 261.187 264.834,261.071 265.094,261.071 265.412 M136.324 265.557 C 136.324 265.796,136.454 265.991,136.614 265.991 C 136.773 265.991,136.903 265.796,136.903 265.557 C 136.903 265.318,136.773 265.123,136.614 265.123 C 136.454 265.123,136.324 265.318,136.324 265.557 M136.324 268.000 C 136.324 268.328,136.454 268.596,136.614 268.596 C 136.773 268.596,136.903 268.409,136.903 268.179 C 136.903 267.950,136.773 267.682,136.614 267.583 C 136.454 267.485,136.324 267.673,136.324 268.000 M304.776 273.661 C 304.776 273.900,304.906 274.096,305.065 274.096 C 305.224 274.096,305.355 273.900,305.355 273.661 C 305.355 273.423,305.224 273.227,305.065 273.227 C 304.906 273.227,304.776 273.423,304.776 273.661 M301.635 279.191 C 301.108 279.787,301.447 280.070,302.012 279.505 C 302.259 279.259,302.460 278.983,302.460 278.892 C 302.460 278.588,302.030 278.744,301.635 279.191 M130.750 280.041 C 130.043 280.695,129.719 281.331,130.091 281.331 C 130.281 281.331,131.983 279.647,131.983 279.460 C 131.983 279.117,131.501 279.344,130.750 280.041 M265.991 279.488 C 265.991 279.743,267.183 280.753,267.483 280.753 C 267.847 280.753,267.784 280.535,267.229 279.888 C 266.758 279.337,265.991 279.090,265.991 279.488 M101.881 283.936 C 101.881 284.096,102.077 284.226,102.315 284.226 C 102.554 284.226,102.750 284.096,102.750 283.936 C 102.750 283.777,102.554 283.647,102.315 283.647 C 102.077 283.647,101.881 283.777,101.881 283.936 M104.043 284.819 C 103.768 285.264,104.145 285.551,104.516 285.180 C 104.724 284.972,104.729 284.810,104.531 284.688 C 104.369 284.588,104.150 284.647,104.043 284.819 M108.249 286.541 C 108.249 286.700,108.444 286.831,108.683 286.831 C 108.922 286.831,109.117 286.700,109.117 286.541 C 109.117 286.382,108.922 286.252,108.683 286.252 C 108.444 286.252,108.249 286.382,108.249 286.541 M288.857 286.541 C 288.857 286.700,289.052 286.831,289.291 286.831 C 289.530 286.831,289.725 286.700,289.725 286.541 C 289.725 286.382,289.530 286.252,289.291 286.252 C 289.052 286.252,288.857 286.382,288.857 286.541 M111.433 286.831 C 111.433 286.990,111.856 287.118,112.373 287.116 C 113.087 287.112,113.209 287.044,112.880 286.831 C 112.311 286.463,111.433 286.463,111.433 286.831 M115.195 286.831 C 114.866 287.044,114.988 287.112,115.702 287.116 C 116.219 287.118,116.643 286.990,116.643 286.831 C 116.643 286.463,115.764 286.463,115.195 286.831 M281.476 286.831 C 281.370 287.002,281.689 287.118,282.255 287.116 C 282.980 287.112,283.107 287.043,282.779 286.831 C 282.216 286.467,281.701 286.467,281.476 286.831 M285.094 286.831 C 284.772 287.039,284.944 287.112,285.762 287.116 C 286.425 287.118,286.793 287.005,286.686 286.831 C 286.460 286.465,285.660 286.465,285.094 286.831 " stroke="none" fill="#b5b5b5" fill-rule="evenodd"></path></g></svg>